if (_typeface_js && _typeface_js.loadFace) _typeface_js.loadFace({"glyphs":{"0":{"ha":614,"x_min":22,"x_max":592,"o":"m 308 956 q 330 960 315 957 q 362 966 344 964 q 398 968 379 968 q 433 963 417 968 q 504 910 474 950 q 555 813 535 869 q 583 685 575 756 q 586 544 592 615 q 581 517 586 532 q 569 488 575 503 q 557 456 563 472 q 550 421 551 439 q 554 383 549 403 q 557 347 560 363 q 544 283 553 319 q 523 212 535 247 q 497 146 511 176 q 469 97 483 115 q 420 51 453 75 q 347 8 388 26 q 261 -20 306 -11 q 176 -19 217 -29 q 126 14 151 -14 q 81 80 101 42 q 46 160 60 118 q 29 238 32 201 q 31 418 22 322 q 59 603 39 514 q 111 767 79 693 q 183 882 143 840 q 239 926 204 904 q 308 956 274 947 m 199 472 q 188 390 193 442 q 183 283 183 339 q 188 176 182 228 q 210 95 194 125 q 256 65 226 65 q 331 113 285 65 q 367 173 349 131 q 401 271 385 215 q 428 388 417 326 q 447 508 440 450 q 452 627 453 563 q 440 747 451 692 q 406 838 429 803 q 344 868 382 874 q 274 819 299 860 q 235 722 249 779 q 215 597 222 664 q 199 472 208 531 z "},"1":{"ha":415,"x_min":31,"x_max":378,"o":"m 317 971 q 362 956 349 972 q 376 911 375 939 q 372 849 378 883 q 361 779 367 814 q 331 603 344 683 q 303 442 318 522 q 284 349 296 407 q 265 238 272 292 q 260 178 263 211 q 252 113 257 144 q 238 58 247 82 q 214 24 229 33 q 164 8 182 4 q 138 29 146 11 q 130 75 131 47 q 133 133 129 103 q 141 189 136 163 q 149 229 146 215 q 183 413 167 325 q 214 596 200 500 q 222 651 218 621 q 228 709 226 681 q 226 759 229 738 q 214 788 224 781 q 176 792 196 800 q 136 772 157 783 q 94 754 115 760 q 53 765 74 749 q 38 802 31 783 q 66 838 46 821 q 111 869 86 856 q 149 889 136 882 q 242 942 197 915 q 317 971 286 968 z "},"2":{"ha":585,"x_min":24,"x_max":563,"o":"m 244 311 q 214 261 229 288 q 178 207 199 235 q 175 138 161 158 q 219 113 189 118 q 291 113 250 108 q 370 118 332 117 q 437 112 408 119 q 471 75 465 104 q 460 28 478 42 q 412 13 442 15 q 346 13 382 10 q 281 17 310 17 q 213 13 250 17 q 142 8 176 8 q 79 15 107 8 q 39 46 51 22 q 28 97 24 72 q 47 144 32 121 q 80 189 61 167 q 114 235 99 211 q 124 260 115 243 q 146 294 133 276 q 169 328 158 313 q 186 353 181 344 q 210 419 190 386 q 256 484 229 451 q 310 550 282 517 q 363 619 339 583 q 401 695 386 656 q 413 779 415 735 q 401 827 411 803 q 375 872 390 851 q 339 906 360 893 q 296 919 318 919 q 253 903 276 919 q 208 863 229 888 q 170 810 186 839 q 149 757 154 782 q 148 731 146 742 q 153 711 150 721 q 156 690 156 701 q 149 663 156 679 q 133 640 144 651 q 106 619 121 628 q 76 608 92 611 q 46 611 60 604 q 30 636 35 617 q 24 682 25 656 q 28 737 24 708 q 39 788 32 765 q 90 876 54 832 q 176 952 125 921 q 288 997 226 983 q 419 992 350 1010 q 466 967 440 986 q 513 919 492 947 q 549 856 535 890 q 560 788 563 822 q 555 765 560 779 q 543 733 550 750 q 528 700 536 717 q 515 669 521 683 q 478 617 501 638 q 435 567 454 596 q 394 492 411 531 q 347 421 378 454 q 294 367 321 393 q 244 311 268 342 z "},"3":{"ha":718,"x_min":56,"x_max":664,"o":"m 424 985 q 501 978 463 986 q 570 953 539 969 q 623 913 601 936 q 651 860 644 889 q 645 767 664 804 q 600 702 626 729 q 550 653 574 675 q 526 604 526 631 q 542 566 526 583 q 579 533 558 549 q 619 503 600 518 q 644 472 638 489 q 662 370 664 425 q 644 263 660 315 q 605 167 629 211 q 557 97 581 122 q 510 57 532 72 q 466 33 489 42 q 417 20 443 24 q 358 17 392 17 q 313 14 335 17 q 272 8 292 11 q 234 5 253 6 q 197 10 215 4 q 167 24 186 13 q 128 51 149 35 q 91 88 108 68 q 65 129 74 108 q 58 170 56 150 q 79 207 60 190 q 114 218 89 214 q 160 215 139 222 q 202 179 186 207 q 237 125 218 151 q 286 83 256 99 q 374 83 317 67 q 434 122 403 92 q 488 195 465 153 q 523 289 511 238 q 526 390 535 340 q 520 409 526 393 q 503 444 514 425 q 478 482 493 464 q 446 508 463 500 q 410 510 440 511 q 348 512 381 510 q 289 522 315 514 q 263 553 263 531 q 279 570 263 561 q 318 589 296 579 q 362 608 340 599 q 394 625 383 617 q 445 675 415 642 q 496 749 475 708 q 518 831 517 790 q 483 904 519 872 q 429 926 461 924 q 366 919 397 928 q 308 890 335 910 q 271 846 282 871 q 264 819 264 833 q 263 792 264 806 q 258 765 263 778 q 240 743 254 751 q 213 738 229 736 q 181 746 197 739 q 153 766 165 753 q 139 794 142 779 q 149 856 132 825 q 195 914 167 888 q 258 960 224 940 q 322 985 293 979 q 379 988 349 990 q 424 985 410 985 z "},"4":{"ha":633,"x_min":8,"x_max":624,"o":"m 440 956 q 472 960 451 963 q 515 948 493 958 q 556 921 538 938 q 581 882 574 904 q 585 844 585 867 q 583 797 585 822 q 577 748 581 772 q 572 706 574 724 q 558 629 568 668 q 540 553 549 590 q 526 481 531 515 q 529 421 522 447 q 549 390 533 404 q 581 362 564 375 q 610 336 597 349 q 624 310 624 324 q 610 274 624 285 q 576 255 596 263 q 537 240 557 247 q 507 215 517 232 q 494 178 499 201 q 486 128 490 154 q 476 77 482 101 q 456 39 469 53 q 434 22 447 31 q 408 9 421 14 q 381 3 394 4 q 360 10 368 3 q 342 40 344 22 q 342 78 339 58 q 351 120 346 99 q 358 160 357 142 q 351 194 358 179 q 324 215 344 208 q 266 214 299 224 q 197 194 233 204 q 122 178 160 183 q 51 193 85 174 q 34 209 42 197 q 21 235 26 221 q 12 263 15 250 q 8 281 8 275 q 22 324 8 300 q 53 372 35 347 q 91 417 72 396 q 118 450 110 438 q 203 576 163 513 q 281 703 243 640 q 358 830 319 767 q 440 956 397 893 m 390 694 q 366 676 382 696 q 331 625 350 656 q 291 561 313 594 q 250 501 269 528 q 219 458 239 486 q 183 400 200 431 q 158 342 167 369 q 163 303 150 315 q 190 290 174 290 q 223 295 206 290 q 257 308 240 300 q 286 318 274 315 q 299 319 289 318 q 320 321 308 319 q 343 325 332 322 q 360 332 354 328 q 371 349 368 338 q 375 376 374 361 q 377 406 376 390 q 382 435 378 421 q 394 492 386 450 q 406 578 401 533 q 409 657 411 622 q 390 694 407 692 z "},"5":{"ha":654,"x_min":19,"x_max":639,"o":"m 631 303 q 617 262 629 293 q 588 195 604 231 q 557 129 572 160 q 535 90 542 99 q 504 64 525 79 q 458 34 483 49 q 410 8 433 19 q 374 -6 388 -3 q 317 -11 351 -10 q 245 -9 283 -12 q 168 3 207 -6 q 97 27 129 13 q 44 63 65 42 q 21 113 24 83 q 25 143 19 126 q 40 174 31 160 q 64 197 50 188 q 94 207 78 207 q 138 188 117 208 q 183 143 160 168 q 232 97 206 118 q 293 75 258 76 q 378 99 343 74 q 434 166 413 125 q 464 258 456 207 q 467 358 472 308 q 445 449 463 407 q 399 513 428 490 q 328 533 369 535 q 235 493 286 531 q 210 473 221 483 q 191 454 200 463 q 173 440 182 446 q 154 435 164 435 q 128 446 142 435 q 101 473 114 457 q 78 508 88 489 q 65 544 68 528 q 69 608 61 574 q 88 680 76 643 q 109 753 99 717 q 124 824 119 790 q 122 881 126 850 q 124 926 118 913 q 165 969 138 964 q 228 966 193 974 q 305 949 264 958 q 388 949 346 939 q 449 969 417 960 q 515 979 481 979 q 561 974 540 979 q 582 959 575 971 q 585 935 589 947 q 570 914 582 921 q 546 910 558 907 l 515 913 q 463 904 490 913 q 408 883 436 896 q 367 875 389 876 q 325 872 346 874 q 286 861 304 869 q 256 831 268 853 q 246 797 251 824 q 235 738 240 769 q 227 680 231 707 q 226 647 224 653 q 268 618 236 625 q 337 611 300 611 q 407 613 374 611 q 454 611 440 615 q 519 572 485 600 q 582 501 554 543 q 624 409 610 460 q 631 303 639 358 z "},"6":{"ha":765,"x_min":26,"x_max":738,"o":"m 247 515 q 327 537 292 524 q 396 562 363 550 q 464 578 429 574 q 542 574 499 583 q 615 542 579 565 q 680 483 651 518 q 723 401 708 447 q 732 303 738 354 q 676 163 722 226 q 560 55 629 99 q 409 -6 492 11 q 247 -6 326 -24 q 140 40 186 8 q 67 122 94 72 q 33 242 40 172 q 42 399 26 311 q 88 551 57 483 q 163 674 119 618 q 258 778 206 731 q 372 868 311 825 q 413 906 394 883 q 446 933 432 928 q 461 937 451 936 q 483 938 471 938 q 506 941 494 939 q 526 949 518 943 q 542 953 529 950 q 571 956 556 957 q 599 947 586 954 q 614 919 611 939 q 591 878 617 899 q 530 839 565 858 q 459 802 494 819 q 408 772 424 785 q 358 722 383 751 q 309 659 332 693 q 269 588 286 625 q 247 515 253 551 m 328 390 q 272 399 294 388 q 233 414 249 410 q 211 405 218 418 q 204 339 204 392 q 212 238 204 286 q 236 153 219 190 q 279 94 253 117 q 343 68 306 71 q 421 82 382 65 q 492 125 460 99 q 548 182 525 151 q 578 238 571 213 q 585 333 592 288 q 561 413 579 379 q 516 466 543 447 q 460 479 489 485 q 426 462 440 475 q 399 433 413 449 q 369 406 386 418 q 328 390 353 393 z "},"7":{"ha":524,"x_min":17,"x_max":504,"o":"m 489 706 q 463 659 482 682 q 438 611 443 636 q 438 575 433 590 q 438 544 442 560 q 410 481 429 519 q 368 402 390 443 q 324 321 346 361 q 290 251 303 281 q 259 178 279 225 q 217 84 239 131 q 174 3 196 38 q 136 -35 151 -32 q 115 -28 129 -36 q 87 -9 101 -21 q 61 16 72 3 q 49 39 50 29 q 60 112 43 67 q 101 204 76 157 q 151 294 125 251 q 188 361 176 338 q 194 392 192 369 q 203 428 196 415 q 259 531 226 482 q 319 640 292 579 q 338 678 326 656 q 360 727 349 701 q 379 778 371 753 q 388 825 388 804 q 380 860 389 846 q 349 875 371 874 q 287 870 318 876 q 223 856 256 864 q 156 840 190 847 q 83 832 121 832 q 60 833 72 832 q 39 839 49 835 q 23 851 29 843 q 19 871 17 858 q 32 894 22 885 q 56 900 42 903 q 130 906 94 900 q 199 920 165 913 q 266 935 232 928 q 338 943 300 942 q 431 968 394 979 q 486 918 468 957 q 504 822 504 879 q 489 706 504 764 z "},"8":{"ha":618,"x_min":24,"x_max":593,"o":"m 219 963 q 269 969 232 965 q 347 969 306 972 q 421 953 388 965 q 461 911 454 940 q 463 896 463 906 q 460 875 463 886 q 453 853 458 864 q 439 839 449 843 q 406 839 424 831 q 369 860 388 847 q 333 885 351 874 q 300 897 315 897 q 242 878 265 897 q 203 832 218 860 q 185 772 189 804 q 190 712 182 740 q 215 663 197 683 q 263 640 233 643 q 297 647 281 639 q 329 666 314 654 q 357 691 344 678 q 381 714 369 704 q 403 735 389 721 q 432 763 417 750 q 463 781 447 775 q 490 779 479 788 q 510 744 510 764 q 501 703 511 725 q 472 660 490 682 q 437 618 454 638 q 407 583 419 599 q 394 560 394 568 q 414 504 394 526 q 459 464 433 482 q 513 429 485 446 q 557 390 540 413 q 586 322 579 360 q 588 245 593 285 q 567 167 583 206 q 526 97 551 129 q 443 26 493 54 q 338 -12 393 -1 q 226 -18 282 -24 q 126 12 171 -12 q 53 79 82 36 q 24 186 25 122 q 25 240 24 210 q 30 301 26 271 q 38 359 33 332 q 50 406 43 386 q 66 434 54 419 q 90 464 78 449 q 113 495 103 479 q 124 531 124 511 q 117 560 124 549 q 101 583 110 572 q 81 606 92 593 q 65 640 71 619 q 52 755 47 700 q 78 852 57 810 q 137 924 100 894 q 219 963 174 953 m 168 97 q 232 56 197 64 q 300 57 267 47 q 363 92 333 67 q 413 153 393 118 q 441 228 433 188 q 439 310 449 268 q 410 367 432 339 q 358 417 388 396 q 298 451 329 439 q 242 457 267 463 q 195 429 217 451 q 158 376 174 407 q 133 306 142 344 q 124 230 124 268 q 135 157 125 192 q 168 97 146 122 z "},"9":{"ha":699,"x_min":43,"x_max":654,"o":"m 343 963 q 475 957 417 971 q 569 911 533 943 q 626 811 607 878 q 650 666 646 744 q 643 508 654 588 q 607 369 632 428 q 578 315 597 346 q 538 252 560 285 q 492 190 515 219 q 453 142 469 161 q 431 117 443 131 q 406 92 418 104 q 382 69 393 79 q 364 54 371 58 q 338 37 356 47 q 297 16 319 26 q 249 -1 274 6 q 203 -6 224 -8 q 171 10 183 -4 q 160 54 158 24 q 191 103 161 76 q 260 156 221 129 q 337 208 299 182 q 393 258 375 235 q 409 281 399 265 q 428 313 419 296 q 440 345 436 329 q 438 369 443 361 q 406 380 431 379 q 349 379 381 381 q 283 377 317 378 q 225 383 250 376 q 139 429 175 396 q 81 508 103 463 q 51 606 58 553 q 50 710 43 658 q 78 808 57 761 q 138 889 100 856 q 232 942 178 928 q 343 963 286 957 m 210 817 q 194 772 201 803 q 182 708 188 742 q 174 644 176 674 q 174 604 172 614 q 210 514 182 544 q 277 476 239 483 q 358 481 315 468 q 435 524 400 494 q 491 596 469 553 q 511 692 513 639 q 497 768 510 731 q 460 833 483 806 q 406 874 438 860 q 335 882 374 889 q 308 874 325 881 q 271 860 290 868 q 235 840 251 851 q 210 817 218 829 z "}," ":{"ha":819,"x_min":0,"x_max":0,"o":""},"A":{"ha":863,"x_min":42,"x_max":819,"o":"m 536 943 q 616 947 588 960 q 660 899 644 933 q 682 815 675 865 q 697 708 689 765 q 726 555 707 633 q 756 415 746 476 q 756 381 758 399 q 756 349 753 364 q 768 311 760 333 q 785 265 776 289 q 803 217 794 240 q 814 174 811 193 q 818 126 817 153 q 818 73 819 99 q 810 26 817 47 q 792 -3 804 6 q 744 -19 763 -21 q 713 -1 725 -17 q 692 38 700 14 q 681 88 685 63 q 674 139 676 114 q 668 181 671 164 q 658 217 664 197 q 646 254 653 236 q 631 286 639 272 q 617 306 624 300 q 575 319 604 314 q 510 324 546 324 q 434 323 474 325 q 360 317 394 321 q 299 308 325 314 q 264 297 272 303 q 239 270 250 289 q 218 228 228 251 q 200 181 208 206 q 183 136 192 157 q 169 96 178 121 q 148 47 160 71 q 121 6 136 22 q 88 -10 106 -11 q 51 11 61 -8 q 42 59 42 31 q 51 122 43 88 q 69 188 60 157 q 88 246 79 219 q 96 283 96 272 q 91 307 96 296 q 81 329 86 318 q 74 351 76 340 q 74 371 71 361 q 83 388 78 383 q 97 393 89 392 q 118 399 106 394 q 147 415 131 403 q 199 478 174 436 q 253 570 225 519 q 310 673 281 621 q 374 767 340 725 q 409 795 389 786 q 440 818 429 804 q 464 856 456 836 q 481 892 472 875 q 501 922 489 908 q 536 943 513 936 m 454 664 q 438 640 450 658 q 411 597 426 622 q 379 544 396 572 q 350 489 363 515 q 331 442 338 463 q 331 415 325 422 q 353 404 335 408 q 399 397 372 400 q 455 392 425 393 q 511 392 485 392 q 556 394 538 393 q 579 400 575 396 q 596 437 593 411 q 594 494 599 463 q 578 560 589 526 q 555 622 568 593 q 528 670 542 650 q 506 693 515 690 q 492 692 497 696 q 485 686 488 688 q 467 681 472 683 q 460 676 463 678 q 458 671 458 674 q 454 664 457 668 z "},"B":{"ha":908,"x_min":51,"x_max":857,"o":"m 721 25 q 635 -10 685 1 q 529 -21 585 -21 q 438 -12 483 -21 q 353 12 392 -4 q 285 51 314 28 q 244 107 257 75 q 220 81 238 101 q 181 40 203 61 q 136 1 160 18 q 92 -17 113 -17 q 67 -8 83 -17 q 51 19 51 0 q 64 51 51 33 q 83 92 76 68 q 96 147 90 114 q 113 217 101 181 q 167 426 143 317 q 215 657 192 535 q 228 700 219 678 q 238 742 238 722 q 222 781 238 764 q 189 791 214 789 q 136 796 164 793 q 87 806 108 799 q 65 829 65 813 q 76 850 65 842 q 102 865 86 858 q 135 875 118 871 q 164 883 151 879 q 216 904 188 892 q 273 928 244 917 q 328 949 301 940 q 375 957 354 957 q 425 949 396 957 q 486 942 454 942 q 565 947 524 942 q 642 953 606 953 q 721 931 682 953 q 790 878 760 910 q 838 810 819 847 q 857 742 857 772 q 835 668 857 699 q 788 614 813 638 q 745 571 763 590 q 736 529 728 551 q 767 463 749 499 q 801 390 785 428 q 826 308 817 351 q 830 220 836 265 q 799 126 824 175 q 721 25 774 76 m 376 825 q 356 776 367 811 q 340 700 346 740 q 337 623 335 660 q 354 568 339 586 q 402 544 372 547 q 463 546 432 540 q 521 561 494 551 q 560 575 547 571 q 622 601 593 588 q 672 631 651 614 q 706 672 693 649 q 721 729 718 696 q 665 852 728 817 q 486 869 603 888 q 423 858 451 863 q 376 825 394 853 m 340 201 q 364 183 356 194 q 378 157 372 171 q 390 130 385 143 q 406 107 396 117 q 431 88 415 97 q 465 72 446 79 q 506 63 483 65 q 553 63 528 60 q 653 111 613 71 q 711 205 694 151 q 717 315 728 258 q 663 414 706 372 q 599 448 643 432 q 505 472 556 464 q 405 477 454 481 q 325 451 356 474 q 294 407 304 435 q 278 345 283 379 q 269 274 272 311 q 260 201 267 236 q 290 196 281 194 q 306 201 300 197 q 319 206 313 204 q 340 201 326 207 z "},"S":{"ha":718,"x_min":24,"x_max":699,"o":"m 383 943 q 466 949 419 949 q 556 942 513 950 q 632 916 599 935 q 676 863 665 897 q 677 799 685 836 q 654 729 669 763 q 620 672 639 696 q 588 650 601 649 q 558 667 567 651 q 546 702 550 682 q 540 744 542 722 q 529 782 538 767 q 485 829 514 813 q 424 850 457 846 q 359 844 392 854 q 302 813 326 835 q 267 755 278 790 q 265 672 256 719 q 287 631 271 646 q 323 605 303 615 q 363 587 343 594 q 397 569 383 579 q 436 526 419 553 q 478 481 453 500 q 542 441 508 460 q 607 401 576 422 q 660 349 638 379 q 690 276 683 319 q 676 174 699 224 q 617 85 654 125 q 533 17 579 44 q 449 -18 488 -10 q 337 -21 403 -26 q 206 1 271 -15 q 92 42 142 18 q 31 93 43 65 q 26 115 28 99 q 27 149 24 131 q 40 182 31 167 q 67 203 49 197 q 100 200 82 207 q 136 181 118 193 q 171 156 154 169 q 200 136 188 143 q 231 115 217 126 q 258 94 244 104 q 287 75 272 83 q 317 63 301 67 q 398 69 353 56 q 478 110 443 82 q 531 178 514 138 q 529 268 547 219 q 502 306 522 286 q 456 346 482 326 q 400 385 429 365 q 346 422 371 404 q 274 470 315 444 q 194 529 232 496 q 134 608 157 563 q 118 715 111 653 q 147 797 124 758 q 207 866 171 836 q 289 916 243 896 q 383 943 335 936 z "},"D":{"ha":1207,"x_min":94,"x_max":1114,"o":"m 1058 738 q 1105 592 1096 671 q 1100 435 1114 513 q 1051 290 1086 358 q 963 181 1015 222 q 900 140 935 160 q 826 101 865 119 q 749 65 788 82 q 676 33 710 49 q 630 10 651 22 q 585 -11 608 -3 q 534 -22 561 -19 q 471 -14 507 -24 q 413 -19 442 -19 q 347 -18 383 -19 q 204 13 253 -18 q 139 94 156 43 q 129 213 122 146 q 153 353 136 279 q 192 501 171 426 q 222 643 213 576 q 232 682 225 664 q 244 716 239 700 q 253 745 250 732 q 251 767 256 758 q 220 786 244 781 q 169 796 196 792 q 121 806 143 800 q 97 826 99 811 q 100 849 94 843 q 117 856 106 854 q 147 860 129 858 q 185 869 164 863 q 220 889 201 875 q 258 907 239 903 q 314 907 286 911 q 361 907 342 903 q 401 924 381 910 q 442 943 422 939 q 542 951 490 953 q 645 942 594 950 q 742 923 696 935 q 824 899 788 911 q 906 870 871 883 q 967 840 940 857 q 1015 800 993 824 q 1058 738 1036 776 m 808 194 q 890 284 849 222 q 956 422 932 346 q 978 578 981 499 q 926 724 975 658 q 882 762 914 740 q 810 803 850 783 q 728 840 771 824 q 647 863 685 856 q 593 863 621 867 q 538 853 565 860 q 486 838 511 846 q 442 826 461 831 q 413 823 431 824 q 376 821 394 822 q 344 816 358 819 q 325 804 329 813 q 328 781 319 790 q 352 762 338 771 q 381 742 367 753 q 399 715 394 731 q 393 653 403 694 q 370 569 383 613 q 343 486 357 525 q 325 429 329 447 q 301 338 313 389 q 281 246 290 286 q 271 181 274 213 q 275 122 268 149 q 300 77 282 96 q 351 51 318 58 q 408 49 379 49 q 467 51 438 49 q 597 100 539 68 q 714 158 656 132 q 760 174 735 169 q 808 194 786 179 z "},"F":{"ha":788,"x_min":17,"x_max":775,"o":"m 207 936 q 253 939 211 936 q 358 944 296 942 q 491 949 419 947 q 624 947 563 950 q 726 934 685 943 q 771 907 768 925 q 753 870 775 882 q 694 855 731 858 q 613 854 658 851 q 525 858 568 857 q 447 858 482 860 q 397 847 413 857 q 377 820 385 839 q 365 778 369 801 q 358 733 360 756 q 353 693 356 710 q 346 664 351 682 q 336 626 340 646 q 333 588 332 607 q 346 554 335 568 q 378 542 354 544 q 434 539 403 539 q 499 539 465 539 q 562 535 533 539 q 608 521 590 531 q 625 489 625 511 q 601 457 624 467 q 546 444 579 447 q 472 443 513 442 q 395 445 432 444 q 328 443 358 446 q 288 429 299 440 q 277 412 279 421 q 276 391 275 403 q 276 365 276 379 q 272 335 276 351 q 247 258 265 306 q 214 158 229 210 q 199 104 207 132 q 183 52 190 76 q 168 11 175 28 q 156 -10 161 -6 q 128 -19 147 -17 q 88 -21 108 -21 q 51 -17 68 -21 q 31 -10 35 -14 q 24 21 24 -3 q 27 74 24 44 q 36 132 31 103 q 46 181 42 161 q 64 242 51 208 q 89 310 76 276 q 108 371 101 343 q 111 415 115 399 q 92 439 107 432 q 60 452 76 446 q 30 465 43 458 q 17 489 17 472 q 31 513 17 506 q 65 524 44 521 q 104 531 85 528 q 133 540 124 533 q 163 587 144 547 q 195 675 181 626 q 217 769 210 724 q 214 833 224 814 q 190 846 210 839 q 149 861 171 853 q 108 878 126 869 q 89 899 89 888 q 102 927 89 919 q 134 937 115 935 q 173 937 153 939 q 207 936 193 935 z "},"G":{"ha":914,"x_min":69,"x_max":842,"o":"m 540 928 q 610 932 576 932 q 671 926 643 932 q 722 907 699 921 q 760 869 744 893 q 785 803 779 839 q 785 732 790 767 q 765 667 779 697 q 733 617 751 636 q 692 594 714 599 q 650 606 669 589 q 632 635 635 618 q 631 671 629 651 q 633 711 632 690 q 628 753 635 732 q 593 816 614 796 q 545 840 572 836 q 488 833 518 843 q 424 804 457 822 q 372 781 401 792 q 328 760 342 771 q 274 694 299 738 q 231 596 249 651 q 204 477 214 540 q 195 353 194 414 q 208 237 196 292 q 247 143 221 182 q 279 113 257 129 q 328 85 301 97 q 383 64 356 72 q 431 56 410 56 q 485 72 456 57 q 544 110 515 88 q 597 160 572 133 q 636 210 621 186 q 652 235 643 222 q 668 260 661 247 q 677 287 675 274 q 672 313 679 300 q 639 328 665 324 q 582 337 613 332 q 528 350 551 342 q 504 378 504 358 q 523 397 504 388 q 572 413 542 407 q 638 423 601 419 q 708 426 674 426 q 771 419 743 425 q 811 400 799 413 q 840 347 839 375 q 830 290 842 318 q 799 238 818 263 q 768 194 781 213 q 715 122 743 160 q 652 53 688 85 q 571 -3 617 21 q 467 -32 525 -26 q 430 -34 451 -33 q 386 -34 408 -35 q 343 -31 364 -33 q 306 -25 322 -29 q 178 47 228 -7 q 102 174 128 100 q 73 334 76 247 q 84 506 69 421 q 129 665 99 590 q 203 789 160 739 q 269 842 229 818 q 354 884 308 867 q 448 913 400 901 q 540 928 496 924 z "},"H":{"ha":1026,"x_min":51,"x_max":976,"o":"m 247 921 q 266 927 253 924 q 295 931 279 931 q 326 928 311 932 q 350 914 342 924 q 360 865 364 896 q 345 800 357 833 q 321 737 333 767 q 306 693 308 707 q 298 617 299 657 q 313 554 297 578 q 365 527 326 535 q 451 517 404 519 q 547 517 499 515 q 628 518 594 518 q 660 519 640 518 q 701 521 681 519 q 738 525 721 522 q 760 532 754 528 q 773 552 769 539 q 777 581 776 565 q 778 615 778 597 q 782 650 779 633 q 797 723 788 678 q 821 812 807 768 q 851 889 835 856 q 885 928 867 922 q 901 930 890 929 q 924 929 913 931 q 944 926 935 928 q 958 921 954 924 q 974 860 976 908 q 958 750 971 813 q 928 621 944 688 q 907 503 913 554 q 883 332 896 411 q 856 174 871 253 q 848 113 850 144 q 844 52 846 81 q 840 3 843 24 q 826 -25 836 -18 q 803 -32 818 -31 q 774 -33 789 -33 q 746 -30 758 -32 q 731 -25 733 -28 q 718 8 721 -17 q 716 63 715 33 q 719 123 717 93 q 724 174 722 153 q 731 227 725 192 q 743 300 738 263 q 751 370 749 338 q 746 415 753 403 q 698 440 735 433 q 614 447 661 446 q 520 447 567 449 q 444 444 474 444 q 409 444 431 444 q 366 442 388 443 q 326 437 344 440 q 299 429 307 433 q 255 370 271 415 q 228 268 239 325 q 212 153 218 211 q 196 56 206 94 q 192 35 193 47 q 188 12 190 24 q 183 -10 186 0 q 174 -25 179 -21 q 150 -32 165 -31 q 119 -31 135 -33 q 89 -26 103 -29 q 71 -18 75 -22 q 53 26 56 -3 q 56 92 51 54 q 72 172 61 129 q 91 256 82 214 q 106 338 100 299 q 108 408 113 378 q 94 450 106 432 q 86 481 83 468 q 97 503 88 490 q 117 527 106 515 q 138 550 128 539 q 151 569 147 561 q 171 650 164 597 q 186 758 178 703 q 208 860 194 814 q 247 921 221 906 z "},"J":{"ha":726,"x_min":19,"x_max":708,"o":"m 540 928 q 588 931 563 929 q 637 933 614 933 q 678 924 660 932 q 701 899 696 917 q 696 857 708 878 q 665 815 683 836 q 626 775 646 794 q 599 738 606 756 q 592 715 596 729 q 584 683 588 700 q 576 650 581 667 q 569 621 572 633 q 546 467 554 551 q 525 302 538 383 q 490 151 513 221 q 424 42 467 82 q 367 3 401 21 q 294 -27 333 -15 q 210 -41 254 -39 q 122 -32 165 -43 q 102 -24 117 -31 q 72 -9 88 -18 q 43 9 56 0 q 28 26 31 18 q 24 68 19 49 q 37 102 28 88 q 56 126 46 117 q 71 136 67 135 q 106 128 92 140 q 135 99 119 117 q 169 66 150 82 q 218 49 188 50 q 293 74 261 46 q 348 151 325 103 q 386 260 371 199 q 412 385 401 321 q 428 508 422 449 q 438 613 433 568 q 448 668 439 635 q 465 735 457 701 q 476 797 472 769 q 475 833 481 824 q 452 844 468 842 q 415 847 436 847 q 369 846 393 847 q 324 846 344 844 q 288 854 303 847 q 269 876 274 861 q 280 907 264 896 q 323 924 296 918 q 384 931 350 931 q 450 931 418 932 q 507 929 482 931 q 540 928 532 928 z "},"K":{"ha":800,"x_min":18,"x_max":782,"o":"m 203 914 q 267 918 249 933 q 288 868 286 903 q 281 787 290 833 q 260 696 271 740 q 244 618 250 651 q 246 576 238 585 q 293 569 263 560 q 355 600 324 579 q 413 644 386 621 q 451 679 440 668 q 498 722 474 700 q 544 764 522 743 q 583 803 565 785 q 613 833 601 821 q 627 853 618 839 q 647 883 636 868 q 670 909 658 897 q 694 921 682 921 q 729 912 713 922 q 757 886 746 901 q 775 854 768 871 q 782 826 782 838 q 756 771 781 800 q 699 715 732 742 q 631 665 665 688 q 576 628 597 642 q 527 597 563 618 q 455 551 492 576 q 389 499 418 525 q 357 451 360 472 q 367 398 353 421 q 403 356 381 375 q 454 319 426 336 q 503 283 482 301 q 524 255 515 272 q 547 225 532 238 q 608 178 574 200 q 671 136 642 157 q 719 94 700 115 q 738 49 739 74 q 728 25 738 39 q 705 -1 718 11 q 677 -23 692 -14 q 650 -32 663 -32 q 602 -10 628 -32 q 549 42 576 11 q 494 106 522 72 q 438 165 465 140 q 419 185 433 168 q 383 223 404 201 q 336 268 361 244 q 288 311 311 292 q 245 342 264 331 q 217 349 226 353 q 199 324 206 344 q 187 276 192 303 q 179 221 182 249 q 174 174 176 193 q 167 121 169 150 q 163 65 165 92 q 156 15 160 38 q 144 -18 153 -8 q 119 -33 136 -28 q 84 -40 103 -39 q 49 -37 65 -40 q 26 -25 33 -33 q 18 5 18 -15 q 22 49 18 25 q 33 96 26 72 q 42 136 39 119 q 70 362 57 238 q 107 613 83 486 q 123 699 114 650 q 144 792 132 747 q 170 872 156 838 q 203 914 185 906 z "},"L":{"ha":692,"x_min":13,"x_max":678,"o":"m 292 914 q 355 901 336 926 q 376 834 374 876 q 372 742 379 792 q 358 657 364 693 q 308 410 336 533 q 256 188 279 288 q 245 158 253 176 q 231 122 238 140 q 222 85 225 103 q 226 56 219 67 q 252 37 235 40 q 293 34 269 33 q 344 38 317 35 q 401 42 372 42 q 465 42 421 42 q 553 38 508 42 q 635 27 599 35 q 674 4 671 19 q 660 -26 678 -15 q 615 -40 642 -36 q 557 -45 588 -44 q 504 -47 526 -46 q 449 -49 481 -49 q 382 -49 417 -49 q 312 -48 347 -49 q 247 -47 276 -47 q 189 -47 225 -47 q 117 -46 153 -47 q 54 -40 82 -44 q 21 -25 26 -35 q 18 2 13 -12 q 35 31 24 17 q 64 63 47 46 q 112 191 93 122 q 146 326 131 260 q 165 420 156 368 q 185 526 175 472 q 203 633 194 581 q 218 731 211 686 q 228 790 224 760 q 240 845 232 819 q 259 890 247 871 q 292 914 271 908 z "},"&":{"ha":804,"x_min":25,"x_max":772,"o":"m 404 933 q 493 941 443 939 q 590 935 543 943 q 671 904 636 926 q 713 839 706 882 q 708 783 715 821 q 683 711 700 746 q 642 656 667 676 q 588 656 618 636 q 566 682 569 667 q 563 716 563 697 q 565 756 564 735 q 558 801 567 778 q 515 852 544 839 q 450 860 486 865 q 376 837 414 856 q 304 793 338 818 q 248 741 271 768 q 221 692 225 714 q 220 640 215 665 q 235 592 225 614 q 260 556 246 571 q 286 538 274 542 q 322 538 299 533 q 373 549 346 542 q 428 562 400 556 q 480 569 457 568 q 519 561 503 569 q 536 531 535 553 q 519 504 538 517 q 476 481 501 492 q 426 463 451 471 q 389 450 401 456 q 306 406 344 431 q 238 348 268 381 q 189 274 208 315 q 163 178 169 232 q 165 128 160 154 q 183 79 169 101 q 218 42 196 57 q 272 24 240 26 q 330 33 299 22 q 392 63 361 44 q 452 106 424 82 q 502 155 481 131 q 535 201 524 179 q 543 238 546 224 q 524 263 539 256 q 494 274 510 269 q 465 283 478 278 q 449 303 451 288 q 467 332 444 321 q 524 348 489 343 q 602 352 560 353 q 681 347 644 351 q 744 332 718 342 q 771 310 769 322 q 763 285 772 294 q 740 269 753 276 q 715 257 728 263 q 697 244 701 251 q 684 205 689 231 q 675 147 679 179 q 666 82 671 115 q 653 21 661 49 q 634 -26 646 -7 q 603 -49 622 -46 q 565 -43 578 -53 q 546 -19 553 -33 q 533 8 539 -6 q 514 24 526 21 q 475 19 497 28 q 428 -4 453 10 q 378 -31 404 -18 q 331 -49 353 -44 q 253 -56 297 -56 q 176 -49 208 -56 q 81 2 115 -37 q 36 95 47 42 q 37 210 25 149 q 82 325 49 271 q 106 356 90 339 q 138 392 122 374 q 165 426 153 410 q 176 457 176 443 q 166 491 176 474 q 141 525 156 508 q 113 558 126 542 q 96 589 100 574 q 101 710 79 651 q 168 815 122 768 q 276 893 214 861 q 404 933 339 925 z "},":":{"ha":397,"x_min":14,"x_max":386,"o":"m 250 650 q 294 644 269 653 q 339 617 318 635 q 373 574 360 600 q 382 518 386 549 q 360 477 379 499 q 313 437 340 456 q 255 407 286 418 q 199 400 224 396 q 164 416 183 403 q 128 448 144 429 q 103 489 113 467 q 96 532 93 511 q 116 567 97 547 q 159 603 135 586 q 209 634 183 621 q 250 650 235 647 m 163 165 q 257 143 222 176 q 267 129 258 143 q 285 97 275 115 q 302 60 294 78 q 308 33 310 42 q 284 0 306 19 q 233 -37 263 -19 q 174 -66 204 -54 q 125 -76 143 -78 q 88 -62 107 -75 q 51 -33 68 -50 q 24 6 35 -15 q 15 49 14 28 q 32 91 17 71 q 69 126 47 111 q 116 152 90 142 q 163 165 142 163 z "},"£":{"ha":743,"x_min":21,"x_max":719,"o":"m 450 933 q 529 940 486 942 q 611 926 572 939 q 678 892 650 914 q 714 839 707 869 q 713 781 719 815 q 690 720 706 747 q 651 682 674 693 q 604 692 629 671 q 585 731 586 706 q 583 783 583 757 q 575 828 582 808 q 539 853 568 849 q 483 828 511 857 q 433 757 454 799 q 406 672 413 715 q 414 604 399 629 q 444 587 422 592 q 492 578 467 582 q 537 567 517 574 q 560 544 557 561 q 545 510 565 519 q 498 497 525 500 q 444 492 471 493 q 407 486 417 492 q 372 436 385 472 q 351 354 360 400 q 336 258 343 308 q 318 164 329 207 q 311 144 317 156 q 301 122 306 133 q 292 100 296 111 q 289 83 288 89 q 338 35 296 51 q 436 24 381 19 q 482 38 443 25 q 565 58 521 50 q 644 62 610 67 q 678 24 679 57 q 657 7 678 18 q 610 -16 636 -4 q 559 -37 585 -28 q 524 -49 533 -47 q 401 -55 453 -62 q 306 -34 349 -47 q 227 -12 264 -21 q 150 -12 190 -3 q 121 -23 138 -15 q 88 -35 104 -31 q 56 -37 71 -39 q 32 -19 40 -35 q 36 22 21 0 q 76 67 51 44 q 125 110 100 89 q 157 149 150 131 q 160 182 163 161 q 164 222 158 203 q 179 272 168 236 q 199 347 190 307 q 213 422 208 386 q 208 472 217 457 q 185 488 203 482 q 147 498 167 493 q 110 508 126 503 q 92 522 94 514 q 98 558 83 547 q 136 573 113 569 q 183 577 160 576 q 215 582 207 578 q 256 623 240 594 q 284 688 272 651 q 308 763 296 724 q 338 836 321 801 q 382 897 356 871 q 450 933 408 924 z "},"@":{"ha":686,"x_min":21,"x_max":661,"o":"m 161 251 q 164 183 156 221 q 191 113 172 146 q 236 58 210 79 q 293 39 263 36 q 334 58 313 40 q 374 88 356 75 q 408 99 393 101 q 432 61 424 97 q 415 6 439 29 q 352 -31 390 -18 q 269 -46 314 -44 q 190 -35 224 -47 q 112 28 146 -18 q 57 140 78 75 q 28 282 36 206 q 29 435 21 358 q 47 531 33 481 q 80 631 61 582 q 120 723 99 679 q 161 801 142 767 q 174 835 171 819 q 183 860 176 851 q 226 900 200 882 q 282 930 253 918 q 341 947 311 942 q 396 949 371 951 q 459 924 425 944 q 525 878 493 904 q 581 824 557 851 q 615 779 606 797 q 640 708 629 751 q 656 617 650 664 q 660 524 661 569 q 653 450 660 479 q 631 412 647 431 q 608 369 615 393 q 603 331 601 349 q 601 303 606 313 q 524 220 579 254 q 401 176 468 186 q 269 182 335 165 q 161 251 203 199 m 374 853 q 320 847 343 860 q 279 811 297 835 q 247 755 261 788 q 223 690 233 722 q 205 626 213 657 q 190 574 197 594 q 224 594 211 578 q 250 630 238 611 q 277 667 263 649 q 315 692 292 685 q 389 699 363 706 q 428 672 415 693 q 443 621 440 651 q 446 555 446 590 q 446 485 446 519 q 454 421 446 450 q 493 488 482 447 q 503 574 504 528 q 490 668 501 621 q 461 755 479 715 q 420 821 443 794 q 374 853 397 847 m 300 347 q 326 354 317 339 q 340 394 336 369 q 342 444 343 418 q 336 486 340 471 q 301 466 313 486 q 287 421 290 446 q 288 374 283 396 q 300 347 292 351 z "},"/":{"ha":693,"x_min":36,"x_max":658,"o":"m 613 1043 q 653 1030 647 1047 q 650 985 658 1013 q 627 928 642 958 q 606 875 613 897 q 591 802 594 839 q 576 736 588 765 q 552 694 567 711 q 532 663 538 676 q 527 629 525 646 q 525 604 529 613 q 515 589 522 597 q 499 572 507 581 q 483 556 490 564 q 474 544 475 549 q 452 491 461 519 q 433 432 443 463 q 411 369 424 401 q 379 303 399 336 q 358 283 372 292 q 335 258 343 274 q 294 188 314 226 q 253 110 274 150 q 215 29 233 69 q 181 -49 197 -11 q 172 -62 179 -50 q 153 -91 165 -75 q 128 -124 142 -107 q 99 -155 114 -142 q 72 -172 85 -168 q 49 -167 58 -176 q 38 -136 36 -154 q 50 -99 40 -118 q 70 -63 60 -81 q 85 -35 81 -46 q 85 -29 86 -32 q 83 -21 83 -26 q 85 -7 83 -15 q 93 17 86 1 q 148 135 118 83 q 203 229 178 186 q 382 558 292 382 q 540 933 472 735 q 549 966 544 947 q 560 1001 553 985 q 580 1028 568 1017 q 613 1043 592 1040 z "},"?":{"ha":615,"x_min":50,"x_max":572,"o":"m 253 935 q 371 933 310 944 q 479 889 432 921 q 549 808 526 857 q 553 693 572 758 q 519 626 543 661 q 468 553 496 590 q 413 479 440 517 q 369 407 386 442 q 356 365 365 396 q 334 302 347 333 q 301 251 321 271 q 253 246 281 232 q 231 278 235 254 q 231 335 226 303 q 247 402 235 367 q 271 470 258 438 q 294 527 283 503 q 311 561 306 551 q 341 606 324 585 q 373 649 358 626 q 396 698 388 672 q 399 758 404 724 q 355 821 392 804 q 267 818 318 838 q 213 776 228 803 q 215 686 199 750 q 235 650 221 668 q 246 613 249 632 q 232 588 243 601 q 204 565 221 575 q 167 548 188 554 q 128 546 147 542 q 65 602 79 557 q 56 702 50 647 q 85 808 63 757 q 135 883 108 860 q 166 905 149 896 q 200 920 183 914 q 231 930 217 926 q 253 935 244 933 m 311 201 q 348 192 328 203 q 384 163 368 182 q 409 117 400 143 q 414 63 418 92 q 390 12 410 35 q 344 -26 371 -11 q 288 -44 318 -40 q 235 -37 258 -47 q 197 -1 211 -26 q 186 69 182 25 q 202 115 188 92 q 236 156 217 138 q 276 188 256 175 q 311 201 297 200 z "},"l":{"ha":592,"x_min":19,"x_max":567,"o":"m 357 988 q 428 990 393 1001 q 474 943 463 979 q 479 881 485 910 q 461 826 474 851 q 435 779 449 801 q 415 738 421 757 q 413 720 413 728 q 415 704 414 713 q 416 686 415 696 q 415 664 417 676 q 399 627 413 646 q 379 583 386 608 q 367 525 372 556 q 357 464 361 494 q 347 406 353 433 q 335 357 342 378 q 315 299 328 338 q 296 219 303 260 q 294 144 289 178 q 328 100 299 110 q 376 101 354 90 q 417 131 397 111 q 453 174 436 150 q 486 218 469 199 q 519 247 503 238 q 556 246 536 257 q 566 206 567 240 q 533 122 565 171 q 480 66 517 97 q 397 14 443 35 q 299 -10 350 -7 q 203 19 247 -12 q 186 37 194 25 q 170 62 178 49 q 158 89 163 75 q 151 114 153 103 q 157 173 149 132 q 174 258 165 214 q 185 339 182 301 q 174 386 188 376 q 140 385 157 399 q 105 352 122 371 q 70 321 88 333 q 35 326 53 308 q 26 362 19 342 q 49 401 33 382 q 80 437 64 421 q 100 460 96 453 q 133 524 118 489 q 167 592 149 560 q 184 621 174 604 q 205 653 194 638 q 225 684 215 669 q 240 708 235 699 q 264 778 254 735 q 285 863 274 821 q 313 941 296 906 q 357 988 329 976 z "},"k":{"ha":718,"x_min":26,"x_max":688,"o":"m 519 232 q 566 217 546 210 q 603 237 586 224 q 638 258 621 250 q 674 246 654 265 q 686 220 688 232 q 674 197 685 208 q 651 175 664 186 q 629 151 638 164 q 602 97 614 125 q 578 47 590 69 q 549 11 565 25 q 506 -3 532 -3 q 451 18 468 -3 q 427 71 433 39 q 419 142 421 103 q 410 217 417 181 q 395 256 406 238 q 372 290 385 275 q 347 313 360 304 q 322 319 333 321 q 288 296 300 317 q 268 244 275 275 q 257 176 261 213 q 248 107 253 140 q 235 47 243 74 q 213 11 226 21 q 184 2 203 4 q 146 1 165 0 q 110 7 126 3 q 88 19 93 11 q 75 60 74 35 q 84 113 76 85 q 101 169 92 140 q 115 222 111 197 q 111 263 118 246 q 79 283 104 279 q 65 282 71 285 q 54 277 60 279 q 44 276 49 275 q 36 283 40 276 q 31 317 26 299 q 44 353 35 336 q 63 381 53 369 q 72 393 72 392 q 113 429 92 417 q 146 460 133 442 q 197 573 178 504 q 231 717 215 642 q 264 862 247 792 q 307 979 281 932 q 334 995 315 994 q 372 990 353 996 q 406 974 390 983 q 425 958 421 964 q 435 897 439 931 q 419 826 432 863 q 390 755 407 790 q 360 690 372 719 q 345 638 347 660 q 358 606 343 615 q 393 605 375 596 q 429 628 411 614 q 465 658 447 643 q 497 672 482 672 q 554 656 525 672 q 603 615 583 640 q 631 556 624 589 q 622 489 638 522 q 603 456 615 475 q 578 417 592 438 q 553 375 565 396 q 535 335 540 354 q 526 289 526 310 q 519 261 525 268 q 505 250 515 254 q 485 240 494 246 q 469 225 475 233 q 468 203 463 217 q 480 193 472 193 q 496 199 488 193 q 511 215 504 206 q 519 232 518 224 m 374 386 q 415 385 392 375 q 456 416 438 394 q 486 467 475 438 q 490 525 497 496 q 434 514 464 531 q 384 473 404 497 q 358 424 364 449 q 374 386 353 399 z "},"j":{"ha":592,"x_min":15,"x_max":579,"o":"m 446 994 q 535 995 506 1010 q 571 950 564 981 q 552 875 579 908 q 485 826 525 842 q 408 818 446 811 q 358 863 371 825 q 353 917 347 894 q 373 956 358 940 q 408 981 388 971 q 446 994 428 990 m 475 474 q 454 408 472 443 q 424 326 436 372 q 413 245 413 288 q 401 158 413 203 q 338 -40 378 47 q 247 -164 299 -126 q 215 -184 236 -174 q 172 -203 194 -194 q 126 -215 149 -211 q 86 -215 103 -219 q 62 -201 74 -212 q 42 -177 50 -190 q 29 -150 33 -164 q 28 -128 25 -136 q 44 -106 32 -114 q 74 -92 57 -99 q 109 -80 90 -86 q 144 -61 128 -74 q 198 3 179 -35 q 228 89 217 42 q 249 189 240 136 q 269 297 257 242 q 289 369 276 325 q 306 451 301 414 q 299 505 310 488 q 247 496 288 522 q 158 394 203 444 q 81 288 114 344 q 59 273 74 276 q 33 276 44 269 q 18 298 21 283 q 22 325 15 313 q 67 387 42 356 q 119 447 93 418 q 166 501 144 475 q 197 546 188 526 q 249 612 215 582 q 319 658 282 642 q 393 669 357 674 q 453 635 429 665 q 467 601 463 622 q 474 556 472 581 q 476 510 476 532 q 475 474 476 488 z "},"h":{"ha":861,"x_min":24,"x_max":839,"o":"m 318 994 q 349 997 333 999 q 376 987 364 996 q 396 960 388 978 q 406 914 404 943 q 399 874 407 897 q 379 827 390 851 q 356 778 368 803 q 339 731 344 753 q 331 693 335 715 q 326 649 328 671 q 326 611 325 628 q 332 592 328 594 q 360 596 340 585 q 401 623 379 607 q 442 654 422 639 q 471 672 461 669 q 560 681 517 692 q 638 640 604 669 q 690 568 671 611 q 706 481 708 525 q 699 442 706 464 q 683 399 692 421 q 667 357 675 376 q 654 326 658 338 q 644 285 650 311 q 635 232 639 258 q 631 184 631 206 q 640 158 632 163 q 666 163 650 153 q 701 189 682 172 q 739 225 719 206 q 776 260 758 244 q 808 284 793 276 q 831 283 822 292 q 830 243 839 275 q 801 173 821 211 q 758 99 782 135 q 714 49 735 64 q 625 8 674 18 q 535 10 576 -3 q 468 61 493 24 q 450 165 443 99 q 461 213 451 181 q 483 285 471 246 q 506 368 494 325 q 524 448 518 411 q 528 512 531 485 q 508 547 525 539 q 476 547 494 554 q 439 526 457 539 q 406 497 421 513 q 383 474 390 482 q 356 419 367 454 q 325 357 344 385 q 293 324 314 340 q 267 297 272 308 q 249 231 250 264 q 238 151 247 197 q 230 119 235 140 q 220 78 225 99 q 210 40 215 57 q 200 19 204 24 q 177 8 193 13 q 143 4 161 4 q 108 10 125 4 q 83 26 92 15 q 74 72 71 44 q 83 128 76 99 q 94 188 89 158 q 90 239 99 217 q 74 262 83 256 q 57 271 65 268 q 42 276 49 274 q 32 290 35 279 q 26 332 24 318 q 36 353 29 346 q 51 363 43 360 q 61 371 58 365 q 107 474 81 411 q 159 603 133 536 q 206 733 185 669 q 238 840 228 796 q 247 892 243 867 q 257 938 250 918 q 277 973 264 958 q 318 994 290 988 z "},"g":{"ha":739,"x_min":18,"x_max":721,"o":"m 425 672 q 508 676 460 679 q 602 659 557 674 q 681 618 647 644 q 718 554 714 592 q 710 504 721 522 q 685 474 700 486 q 657 451 671 463 q 638 422 643 440 q 639 385 632 404 q 644 349 646 367 q 640 299 644 328 q 630 238 636 269 q 616 175 624 207 q 601 114 608 143 q 551 -28 581 35 q 469 -135 521 -92 q 338 -197 417 -178 q 139 -208 258 -217 q 108 -206 126 -207 q 73 -201 90 -206 q 41 -186 56 -196 q 22 -157 26 -176 q 22 -118 18 -140 q 37 -76 26 -96 q 63 -41 47 -56 q 94 -25 78 -26 q 137 -35 124 -22 q 158 -67 150 -49 q 177 -103 167 -85 q 213 -128 188 -121 q 267 -128 239 -135 q 321 -108 296 -121 q 364 -82 346 -96 q 389 -61 382 -68 q 403 -38 396 -53 q 414 -8 410 -24 q 418 21 418 7 q 411 42 418 35 q 377 42 403 49 q 317 25 351 35 q 245 9 283 15 q 176 11 207 3 q 126 44 151 18 q 81 106 100 69 q 53 186 63 142 q 51 276 44 231 q 69 333 54 297 q 94 393 83 368 q 151 483 117 439 q 227 566 185 528 q 320 632 269 604 q 425 672 371 660 m 315 503 q 285 457 303 489 q 250 384 267 425 q 220 299 233 343 q 206 215 207 254 q 219 149 206 176 q 271 114 233 121 q 308 119 288 111 q 349 139 329 126 q 385 165 368 151 q 411 188 403 179 q 438 224 424 201 q 464 270 451 247 q 485 315 476 293 q 499 349 494 336 q 501 371 501 360 q 500 392 501 382 q 499 413 499 403 q 506 429 500 422 q 523 440 510 436 q 551 450 536 444 q 578 465 565 456 q 594 489 590 474 q 583 539 600 519 q 540 569 565 558 q 489 582 514 579 q 454 583 464 585 q 419 572 439 581 q 378 551 399 564 q 341 526 358 539 q 315 503 324 513 z "},"f":{"ha":636,"x_min":1,"x_max":626,"o":"m 10 261 q 16 326 1 292 q 54 398 31 361 q 105 473 78 435 q 150 547 132 511 q 191 651 174 597 q 224 753 208 704 q 240 818 231 776 q 264 901 250 860 q 294 975 278 943 q 333 1010 311 1007 q 397 980 379 1014 q 417 897 415 946 q 409 794 418 847 q 392 708 400 742 q 367 629 382 669 q 340 551 353 589 q 319 482 326 514 q 318 429 311 450 q 343 400 322 415 q 390 371 364 385 q 444 345 417 357 q 488 326 471 333 q 532 313 508 318 q 576 302 556 308 q 611 287 597 296 q 626 261 625 278 q 619 246 626 251 q 601 235 611 240 q 582 225 592 231 q 568 210 572 219 q 563 181 563 196 q 564 151 563 167 q 567 121 565 136 q 568 93 569 106 q 539 -22 564 40 q 470 -132 514 -83 q 363 -203 426 -181 q 215 -201 299 -226 q 149 -142 174 -189 q 116 -33 125 -96 q 109 98 107 29 q 121 225 111 167 q 129 265 124 244 q 138 301 135 285 q 139 331 140 318 q 128 349 138 344 q 95 339 111 357 q 64 299 79 321 q 35 263 49 278 q 10 261 21 247 m 267 -112 q 298 -115 279 -119 q 335 -99 317 -110 q 369 -72 353 -87 q 392 -40 385 -56 q 406 19 403 -18 q 407 94 410 56 q 395 171 404 133 q 371 235 386 208 q 335 270 356 261 q 289 261 314 279 q 270 226 279 254 q 253 160 261 199 q 242 76 246 121 q 238 -8 238 32 q 245 -76 239 -47 q 267 -112 251 -106 z "},"d":{"ha":736,"x_min":24,"x_max":714,"o":"m 700 283 q 709 214 714 247 q 690 153 704 181 q 658 104 676 125 q 628 71 640 83 q 611 57 622 65 q 588 41 600 49 q 563 27 575 33 q 546 19 551 21 q 492 19 515 13 q 450 34 469 25 q 413 53 431 43 q 378 63 396 63 q 326 53 350 64 q 275 31 301 42 q 217 15 249 19 q 143 26 185 11 q 94 58 117 36 q 55 111 71 81 q 31 178 39 142 q 26 254 24 215 q 43 331 29 290 q 78 410 57 371 q 125 488 99 450 q 179 554 151 525 q 221 593 194 571 q 276 635 247 615 q 331 670 304 656 q 378 686 358 685 q 401 681 388 686 q 427 670 414 676 q 452 659 440 664 q 474 657 464 654 q 509 685 497 663 q 526 738 521 707 q 535 806 532 769 q 543 874 538 842 q 559 934 549 907 q 590 972 569 961 q 639 978 611 983 q 678 958 667 974 q 685 907 686 946 q 677 822 683 868 q 663 731 671 776 q 649 657 654 685 q 634 595 643 626 q 615 529 625 564 q 597 456 606 494 q 583 371 589 417 q 574 326 582 357 q 560 263 567 296 q 551 201 553 229 q 561 165 550 174 q 594 172 578 153 q 628 216 611 190 q 662 265 644 242 q 700 283 679 288 m 172 239 q 179 193 172 215 q 197 153 186 171 q 225 125 208 136 q 261 114 242 114 q 297 131 276 114 q 340 171 318 147 q 382 223 363 194 q 414 276 401 251 q 424 301 417 281 q 439 348 431 321 q 456 406 447 375 q 468 467 464 438 q 473 520 472 497 q 465 554 474 543 q 447 567 458 564 q 423 569 435 569 q 400 565 411 568 q 385 561 389 563 q 306 519 344 556 q 238 434 268 483 q 189 331 207 385 q 172 239 171 278 z "},"s":{"ha":567,"x_min":14,"x_max":551,"o":"m 544 188 q 510 131 538 163 q 442 74 482 100 q 353 34 401 49 q 258 26 304 19 q 228 34 247 28 q 190 50 210 40 q 154 72 171 60 q 133 100 138 85 q 133 159 124 129 q 169 194 143 189 q 199 184 182 197 q 232 154 215 171 q 263 123 249 138 q 288 107 278 108 q 347 118 322 103 q 385 160 371 133 q 404 219 400 186 q 404 283 408 253 q 382 362 400 318 q 338 445 364 406 q 281 513 311 485 q 221 547 250 542 l 221 549 q 188 513 206 538 q 151 456 171 488 q 112 390 132 424 q 72 328 92 356 q 52 316 65 318 q 28 321 39 314 q 16 341 18 328 q 21 365 14 354 q 63 428 40 392 q 106 498 85 464 q 144 558 126 532 q 172 589 163 583 q 202 631 190 603 q 224 688 214 658 q 245 743 235 717 q 272 782 256 769 q 300 793 285 790 q 331 793 315 796 q 358 782 346 790 q 375 760 371 774 q 379 730 382 743 q 370 705 376 717 q 358 682 364 693 q 353 657 353 671 q 374 592 354 628 q 418 519 393 556 q 469 447 443 482 q 507 386 494 413 q 524 349 515 371 q 540 302 533 328 q 549 247 547 276 q 544 188 551 218 z "},"a":{"ha":783,"x_min":44,"x_max":740,"o":"m 494 643 q 540 681 514 669 q 589 692 565 693 q 629 678 613 690 q 647 643 646 665 q 633 551 650 603 q 604 438 615 499 q 604 404 601 422 q 604 371 607 386 q 589 324 600 353 q 571 267 578 296 q 566 213 564 238 q 589 181 568 189 q 622 192 606 174 q 656 233 639 211 q 690 269 672 254 q 728 268 708 283 q 733 234 740 260 q 711 181 725 208 q 682 129 697 153 q 663 100 667 106 q 633 69 650 85 q 595 41 617 53 q 548 24 574 29 q 494 26 522 19 q 468 38 478 31 q 450 54 458 46 q 433 69 442 63 q 413 78 425 76 q 378 74 394 81 q 349 60 363 68 q 324 43 335 51 q 303 33 313 35 q 158 44 215 13 q 72 135 100 76 q 47 267 44 194 q 83 400 50 339 q 132 472 97 426 q 210 562 167 517 q 296 643 253 607 q 369 686 339 679 q 413 692 396 693 q 442 684 429 690 q 466 667 454 678 q 494 643 478 656 m 215 386 q 193 307 200 353 q 191 219 186 261 q 214 146 196 176 q 267 114 232 115 q 308 128 285 113 q 354 168 331 143 q 399 224 378 193 q 435 283 419 254 q 456 355 451 315 q 472 444 461 394 q 485 501 479 476 q 492 542 492 525 q 485 569 493 558 q 457 583 478 579 q 376 573 414 593 q 306 520 338 553 q 251 450 274 488 q 215 386 228 413 z "},"½":{"ha":697,"x_min":24,"x_max":679,"o":"m 313 1104 q 344 1109 329 1107 q 371 1096 358 1111 q 374 1060 376 1089 q 366 994 372 1031 q 353 923 360 958 q 342 869 346 888 q 331 790 335 832 q 322 712 326 749 q 313 648 318 675 q 297 613 307 621 q 282 608 293 610 q 259 604 271 606 q 237 603 247 603 q 224 606 226 604 q 202 638 204 615 q 206 685 200 660 q 220 738 211 711 q 232 781 229 764 q 240 841 236 808 q 244 903 244 874 q 235 956 243 933 q 210 986 228 979 q 196 988 203 989 q 183 988 189 988 q 173 990 178 988 q 165 1001 168 993 q 180 1034 161 1017 q 225 1067 199 1051 q 277 1092 251 1082 q 313 1104 303 1103 m 628 649 q 652 648 640 647 q 671 626 664 649 q 663 581 679 601 q 621 544 647 560 q 565 516 594 528 q 518 494 536 504 q 383 424 450 461 q 246 356 317 388 q 191 331 225 346 q 124 304 157 317 q 65 285 90 292 q 33 282 39 278 q 30 292 32 283 q 26 311 28 300 q 24 335 24 322 q 26 356 24 347 q 45 372 28 361 q 85 396 63 383 q 131 419 108 408 q 165 436 153 431 q 276 491 218 460 q 394 553 335 522 q 508 609 453 583 q 613 649 564 635 l 628 649 m 467 385 q 493 385 476 386 q 528 379 510 383 q 563 367 546 375 q 590 349 579 360 q 621 285 619 318 q 607 219 622 253 q 567 151 592 185 q 519 85 542 117 q 483 24 497 53 q 474 -26 468 -4 q 492 -47 476 -39 q 524 -64 507 -56 q 554 -81 540 -72 q 569 -99 568 -89 q 556 -131 571 -122 q 517 -142 540 -140 q 465 -140 493 -143 q 415 -136 438 -137 q 363 -131 385 -135 q 331 -117 342 -128 q 320 -87 319 -107 q 335 -33 321 -68 q 376 34 346 -6 q 429 114 407 74 q 449 148 435 124 q 473 198 463 172 q 485 244 483 224 q 467 268 486 264 q 442 244 458 269 q 404 194 425 219 q 360 155 383 168 q 313 165 336 142 q 297 201 297 181 q 305 246 296 222 q 330 293 314 269 q 363 336 346 317 q 397 369 381 356 q 422 385 413 382 q 448 386 432 388 q 467 385 464 385 z "},"¼":{"ha":692,"x_min":28,"x_max":664,"o":"m 310 1082 q 322 1086 315 1083 q 337 1090 329 1089 q 353 1090 344 1092 q 368 1082 361 1089 q 379 1040 381 1071 q 372 972 378 1008 q 357 903 365 936 q 346 856 349 869 q 335 773 339 819 q 317 679 331 726 q 301 635 311 658 q 278 595 292 611 q 249 576 265 579 q 214 592 232 572 q 203 631 203 603 q 208 692 203 658 q 219 763 213 726 q 229 826 226 799 q 238 873 232 853 q 247 908 244 893 q 242 935 249 924 q 214 958 236 947 q 203 959 211 960 q 188 960 196 958 q 173 965 181 961 q 163 979 165 968 q 178 1015 158 997 q 226 1048 199 1033 q 278 1072 253 1063 q 310 1082 303 1082 m 603 628 q 624 631 613 629 q 645 629 636 632 q 659 615 654 626 q 661 576 664 603 q 653 556 660 567 q 636 534 646 544 q 615 515 626 524 q 596 503 604 507 q 448 436 535 471 q 274 357 361 401 q 224 327 256 347 q 158 288 192 307 q 94 258 124 269 q 53 254 65 246 q 29 289 28 269 q 47 328 31 308 q 85 366 63 349 q 126 393 108 383 q 209 438 171 418 q 284 475 247 457 q 359 512 321 493 q 442 554 397 531 q 481 576 460 564 q 523 599 501 588 q 565 619 544 611 q 603 628 586 626 m 478 349 q 504 356 488 353 q 539 356 521 358 q 573 343 557 353 q 596 313 589 333 q 599 269 603 290 q 588 224 594 247 q 575 175 581 200 q 574 122 569 150 q 581 96 575 110 q 594 70 588 82 q 605 49 600 58 q 610 33 610 39 q 601 10 608 19 q 585 -8 594 0 q 567 -26 576 -17 q 551 -47 557 -35 q 544 -72 547 -57 q 538 -102 542 -86 q 530 -131 535 -118 q 515 -150 525 -144 q 469 -161 483 -169 q 446 -133 454 -153 q 431 -89 438 -112 q 406 -54 424 -65 q 383 -52 401 -51 q 342 -52 364 -53 q 301 -47 321 -51 q 274 -32 281 -43 q 273 13 263 -15 q 301 72 283 42 q 338 126 319 101 q 361 158 356 150 q 391 215 378 185 q 417 272 404 244 q 444 319 429 299 q 478 349 458 340 z "},"q":{"ha":742,"x_min":47,"x_max":696,"o":"m 372 675 q 437 682 407 686 q 478 663 467 678 q 480 627 490 649 q 424 581 469 606 q 369 557 396 565 q 328 536 343 549 q 306 513 321 531 q 275 474 292 496 q 243 427 258 451 q 218 382 228 403 q 195 286 199 339 q 206 191 192 233 q 251 127 219 149 q 335 125 283 106 q 369 151 349 131 q 410 196 390 171 q 449 246 431 221 q 475 286 467 271 q 497 344 485 307 q 521 424 510 382 q 541 509 532 467 q 556 581 550 551 q 555 603 557 590 q 552 630 553 617 q 553 655 551 643 q 563 675 554 667 q 588 685 571 683 q 623 685 604 688 q 657 676 642 682 q 679 661 672 669 q 685 610 689 646 q 673 533 682 575 q 652 450 664 492 q 636 382 640 408 q 613 282 628 333 q 584 181 599 231 q 557 88 569 132 q 540 8 544 43 q 538 -31 538 -10 q 542 -74 539 -53 q 551 -110 544 -94 q 569 -132 558 -126 q 601 -135 583 -139 q 635 -126 618 -131 q 667 -122 653 -122 q 688 -139 681 -122 q 683 -177 696 -158 q 644 -208 669 -196 q 585 -225 619 -221 q 518 -219 551 -229 q 451 -189 475 -207 q 415 -139 426 -171 q 410 -92 408 -122 q 415 -32 413 -62 q 414 24 417 -1 q 394 60 411 50 l 321 38 q 179 51 240 25 q 85 129 118 78 q 49 249 51 181 q 86 389 47 317 q 135 460 100 415 q 212 550 169 506 q 297 630 254 594 q 372 675 340 665 z "},"w":{"ha":1047,"x_min":39,"x_max":1004,"o":"m 1003 543 q 998 517 1004 528 q 983 495 992 506 q 965 475 975 485 q 951 456 956 465 q 938 417 943 436 q 930 377 933 397 q 922 338 926 357 q 907 301 917 318 q 865 233 892 272 q 803 155 838 193 q 728 85 768 117 q 648 41 689 54 q 566 39 607 28 q 489 96 525 50 q 470 127 479 108 q 449 159 461 146 q 423 176 438 172 q 386 163 408 179 q 346 117 367 136 q 304 76 325 97 q 184 42 235 31 q 101 102 133 54 q 53 222 68 150 q 43 371 39 294 q 69 516 47 447 q 131 624 90 585 q 156 645 138 631 q 197 670 175 660 q 240 683 219 681 q 269 668 260 685 q 268 625 279 650 q 238 570 257 600 q 199 506 218 540 q 174 433 179 471 q 168 338 167 389 q 174 257 169 288 q 181 224 175 246 q 197 181 186 203 q 223 144 207 160 q 263 132 239 129 q 302 167 285 147 q 336 211 319 188 q 377 272 363 238 q 402 348 392 307 q 422 436 413 389 q 446 536 431 483 q 459 574 450 551 q 479 619 468 597 q 503 658 490 642 q 526 675 515 674 q 569 662 556 679 q 584 614 582 644 q 579 544 586 583 q 564 467 572 506 q 548 394 556 429 q 540 338 540 360 q 544 275 540 308 q 558 213 549 242 q 582 165 568 185 q 614 140 596 144 q 666 152 639 135 q 719 201 693 169 q 769 276 746 233 q 808 363 792 318 q 832 449 825 407 q 833 521 839 490 q 815 551 831 533 q 783 588 800 568 q 756 626 767 607 q 753 661 744 646 q 778 672 758 674 q 819 663 797 671 q 861 646 840 656 q 893 632 882 636 q 916 618 899 628 q 952 595 933 608 q 986 568 971 582 q 1003 543 1001 554 z "},"e":{"ha":790,"x_min":40,"x_max":749,"o":"m 367 668 q 453 681 407 682 q 537 663 499 679 q 598 613 575 646 q 615 529 621 579 q 605 495 614 513 q 584 463 596 478 q 559 434 572 447 q 535 411 546 421 q 505 388 524 401 q 464 360 486 374 q 420 334 442 346 q 381 315 399 322 q 297 290 338 300 q 231 267 256 281 q 205 229 206 253 q 242 163 204 206 q 335 110 283 114 q 439 125 386 106 q 543 177 492 144 q 638 235 594 210 q 662 249 647 240 q 691 263 676 257 q 717 273 706 269 q 733 272 729 276 q 738 233 749 256 q 699 184 726 210 q 634 133 672 158 q 559 85 596 107 q 491 49 522 64 q 447 31 460 35 q 297 19 372 10 q 163 67 221 29 q 72 170 104 106 q 51 324 40 235 q 75 408 57 365 q 119 490 93 451 q 173 558 144 528 q 228 601 201 588 q 267 613 243 611 q 308 624 290 614 q 340 649 328 635 q 367 668 351 663 m 279 514 q 256 485 269 506 q 232 444 243 465 q 216 403 221 422 q 219 375 211 383 q 255 365 231 363 q 308 380 279 368 q 368 412 338 392 q 422 456 399 432 q 460 503 446 479 q 469 550 474 528 q 460 572 467 565 q 442 582 453 579 q 420 583 432 585 q 396 581 408 582 q 367 570 383 578 q 333 553 350 563 q 302 533 317 543 q 279 514 288 522 z "},"r":{"ha":617,"x_min":8,"x_max":607,"o":"m 347 31 q 301 104 308 51 q 301 222 294 157 q 321 355 308 288 q 334 472 333 422 q 315 542 335 521 q 238 536 294 563 q 208 508 219 519 q 183 472 197 496 q 142 404 168 449 q 69 278 117 360 q 50 263 63 267 q 26 267 38 260 q 12 286 15 274 q 15 310 8 299 q 82 419 51 372 q 134 499 113 465 q 167 554 156 533 q 176 586 179 575 q 174 664 171 625 q 190 730 178 703 q 225 767 203 757 q 281 756 247 776 q 293 742 290 750 q 297 723 296 733 q 301 702 299 713 q 310 682 303 692 q 347 656 321 669 q 400 630 372 643 q 451 602 428 617 q 479 572 474 588 q 491 500 493 536 q 479 428 489 464 q 456 359 469 393 q 435 293 443 325 q 426 232 426 261 q 442 176 425 203 q 466 161 453 160 q 493 174 479 163 q 522 205 507 186 q 551 240 536 224 q 579 266 565 256 q 604 272 593 276 q 599 217 607 249 q 573 153 590 186 q 531 90 556 119 q 478 40 507 60 q 415 17 449 21 q 347 31 382 13 z "},"t":{"ha":617,"x_min":10,"x_max":608,"o":"m 601 197 q 524 107 567 140 q 432 49 482 74 q 361 22 401 29 q 283 24 321 15 q 218 55 246 32 q 183 118 190 78 q 185 183 179 144 q 200 262 190 222 q 218 338 210 301 q 228 397 226 375 q 219 424 228 415 q 200 435 211 432 q 172 438 188 439 q 145 407 157 425 q 122 368 133 389 q 97 326 111 347 q 64 283 83 304 q 43 274 56 274 q 21 282 31 274 q 10 304 11 292 q 19 326 10 317 q 51 367 33 340 q 86 419 69 393 q 125 485 106 450 q 135 509 129 500 q 144 525 140 518 q 148 541 147 532 q 146 565 149 550 q 134 585 143 578 q 115 598 125 592 q 96 612 104 604 q 88 632 88 619 q 100 661 89 654 q 128 669 111 668 q 168 669 146 669 q 213 675 190 668 q 258 705 231 681 q 300 756 286 729 q 315 794 311 775 q 323 831 319 814 q 332 860 326 847 q 351 881 338 874 q 382 887 365 888 q 414 882 399 886 q 440 871 429 878 q 454 858 451 864 q 463 815 465 835 q 453 775 460 794 q 443 738 447 756 q 447 704 439 721 q 474 688 453 693 q 520 678 496 683 q 563 663 544 672 q 579 632 581 653 q 556 605 576 613 q 510 592 536 597 q 460 581 485 588 q 425 558 436 575 q 422 528 421 551 q 418 485 424 506 q 394 422 411 460 q 361 341 378 383 q 332 256 344 299 q 320 180 319 213 q 341 129 321 147 q 408 117 361 111 q 483 165 449 136 q 539 233 517 194 q 560 249 546 246 q 588 246 575 253 q 604 224 600 239 q 601 197 608 210 z "},"y":{"ha":793,"x_min":28,"x_max":772,"o":"m 194 653 q 214 660 200 657 q 244 664 228 663 q 278 663 261 665 q 304 653 294 660 q 327 613 325 638 q 323 563 329 589 q 308 515 317 538 q 297 485 299 493 q 297 453 294 471 q 297 411 300 435 q 288 367 294 394 q 272 306 281 339 q 257 240 264 274 q 249 176 250 206 q 255 124 247 146 q 282 96 263 103 q 328 98 304 89 q 374 124 351 107 q 415 163 396 142 q 444 199 433 183 q 474 240 458 218 q 503 282 489 261 q 530 322 518 303 q 547 353 542 340 q 558 393 553 367 q 570 451 564 419 q 583 518 576 483 q 599 583 590 553 q 619 633 608 613 q 642 661 629 654 q 673 666 654 667 q 710 662 692 665 q 742 653 728 658 q 760 646 756 647 q 770 623 768 640 q 769 583 772 606 q 762 535 767 560 q 751 492 757 510 q 717 410 740 451 q 686 324 693 369 q 653 148 672 236 q 599 -14 633 60 q 509 -139 564 -87 q 371 -204 454 -190 q 301 -211 350 -208 q 201 -214 253 -214 q 105 -208 149 -214 q 47 -190 61 -203 q 28 -146 29 -172 q 36 -94 28 -119 q 58 -49 44 -68 q 85 -29 72 -31 q 122 -38 107 -26 q 146 -67 136 -50 q 163 -101 156 -85 q 181 -124 171 -118 q 232 -138 201 -136 q 295 -135 263 -140 q 358 -119 328 -131 q 407 -94 388 -108 q 435 -67 419 -86 q 460 -26 450 -49 q 471 17 469 -4 q 458 51 472 38 q 434 58 449 61 q 404 45 419 54 q 374 26 389 36 q 349 15 360 17 q 254 14 300 6 q 172 44 208 22 q 113 101 136 67 q 85 176 89 135 q 88 228 82 201 q 104 282 94 254 q 123 339 114 310 q 136 397 132 368 q 143 463 140 424 q 151 541 146 503 q 167 610 157 579 q 194 653 176 642 z "},"u":{"ha":793,"x_min":46,"x_max":744,"o":"m 717 308 q 742 260 739 289 q 734 197 744 231 q 701 130 724 164 q 653 69 679 96 q 600 25 628 42 q 549 8 572 8 q 499 23 521 8 q 460 55 478 38 q 425 88 442 72 q 388 103 408 103 q 346 85 368 103 q 296 49 324 68 q 235 17 268 29 q 160 15 201 4 q 126 35 144 19 q 92 73 108 51 q 63 118 75 94 q 50 163 51 142 q 53 251 46 201 q 73 353 61 301 q 97 453 85 404 q 115 536 110 501 q 117 563 117 546 q 117 597 117 579 q 121 631 118 615 q 131 653 124 646 q 164 669 144 667 q 201 663 183 671 q 232 638 219 654 q 247 601 244 622 q 244 536 250 579 q 230 441 239 493 q 212 334 221 389 q 199 233 203 279 q 201 155 196 186 q 225 118 206 124 q 270 124 249 111 q 310 157 292 138 q 340 195 328 176 q 357 221 351 214 q 417 287 394 261 q 453 340 439 313 q 479 406 468 368 q 504 507 490 443 q 512 549 508 524 q 521 597 515 574 q 533 638 526 619 q 549 661 539 657 q 578 665 561 667 q 610 656 594 664 q 637 635 625 649 q 651 601 649 621 q 640 559 653 583 q 622 514 626 535 q 613 469 618 497 q 601 410 607 440 q 591 351 596 379 q 585 308 586 324 q 583 222 578 246 q 602 199 589 199 q 633 216 615 199 q 668 254 651 233 q 699 292 685 275 q 717 308 713 310 z "},"i":{"ha":581,"x_min":19,"x_max":561,"o":"m 379 983 q 447 975 425 992 q 467 910 469 958 q 435 850 465 875 q 369 816 406 825 q 300 817 332 807 q 261 865 268 828 q 269 911 257 890 q 299 947 281 932 q 340 972 318 963 q 379 983 363 981 m 556 231 q 556 203 561 217 q 536 183 550 190 q 508 163 522 179 q 479 122 494 146 q 460 97 472 113 q 435 67 449 82 q 408 42 422 53 q 381 32 393 32 q 314 11 351 18 q 239 7 276 4 q 168 22 201 10 q 115 60 135 35 q 101 88 106 71 q 94 126 96 106 q 92 167 92 146 q 93 206 92 188 q 101 242 94 222 q 115 281 108 263 q 124 315 121 300 q 122 338 128 331 q 103 338 114 350 q 83 306 93 325 q 63 269 72 286 q 49 257 54 253 q 24 290 29 275 q 23 322 19 306 q 34 357 26 339 q 49 397 42 375 q 64 458 57 426 q 78 519 71 490 q 94 572 86 549 q 115 610 103 596 q 172 644 133 629 q 253 661 211 658 q 328 652 294 664 q 372 610 363 640 q 365 538 379 586 q 331 432 351 489 q 289 317 310 375 q 261 214 268 258 q 260 161 257 188 q 275 117 264 135 q 304 92 286 99 q 350 96 322 85 q 391 124 375 104 q 421 163 407 143 q 456 211 436 186 q 508 250 475 236 q 535 250 522 256 q 556 231 549 244 z "},"o":{"ha":733,"x_min":15,"x_max":713,"o":"m 397 690 q 481 691 435 704 q 571 650 528 678 q 647 588 614 622 q 690 529 679 554 q 699 497 694 517 q 706 456 703 476 q 711 416 710 435 q 713 389 713 397 q 688 299 711 351 q 631 197 664 247 q 561 107 597 147 q 500 51 525 67 q 447 26 476 39 q 385 5 418 13 q 313 -3 351 -3 q 236 8 275 -3 q 187 29 219 13 q 121 71 154 46 q 60 128 88 96 q 24 199 32 161 q 23 280 15 235 q 47 368 31 325 q 82 449 63 411 q 118 507 101 486 q 138 525 121 510 q 177 559 154 540 q 226 594 200 578 q 274 615 251 610 q 310 608 296 619 q 324 558 324 596 q 312 523 324 538 q 285 497 300 508 q 253 475 269 486 q 229 449 238 464 q 211 403 219 431 q 197 344 203 375 q 190 281 192 313 q 192 228 188 250 q 208 185 196 207 q 236 145 219 164 q 270 113 253 126 q 301 96 288 99 q 360 99 331 90 q 417 121 390 107 q 463 151 443 135 q 493 176 483 167 q 543 269 525 213 q 559 386 561 326 q 533 497 557 446 q 456 572 508 549 q 432 578 447 576 q 401 583 417 581 q 371 589 385 585 q 353 601 357 593 q 345 638 342 622 q 358 664 349 653 q 380 681 368 675 q 397 690 392 688 z "},"p":{"ha":783,"x_min":33,"x_max":751,"o":"m 563 653 q 645 625 607 651 q 708 554 683 599 q 742 449 733 510 q 739 315 751 388 q 715 246 732 285 q 674 170 697 207 q 627 103 651 133 q 585 60 603 72 q 532 30 563 43 q 467 8 501 17 q 399 -4 433 -1 q 335 0 364 -7 q 306 14 319 4 q 279 33 292 24 q 255 48 267 42 q 232 51 243 54 q 204 19 215 47 q 184 -47 193 -8 q 166 -128 175 -86 q 144 -201 157 -169 q 112 -249 131 -233 q 64 -249 93 -264 q 38 -201 43 -237 q 38 -120 33 -165 q 50 -30 42 -75 q 64 44 58 15 q 85 146 74 97 q 105 248 97 194 q 115 364 113 301 q 108 507 117 426 q 99 542 106 526 q 88 573 93 558 q 83 602 83 588 q 93 632 82 617 q 117 650 101 644 q 151 655 133 656 q 185 648 169 654 q 210 632 201 642 q 224 596 222 618 q 229 551 226 574 q 240 512 232 529 q 269 492 247 494 q 299 502 283 489 q 330 534 314 515 q 362 572 346 553 q 393 601 378 590 q 467 640 429 625 q 563 653 504 656 m 401 507 q 376 475 390 496 q 345 431 361 454 q 315 382 329 407 q 292 338 301 357 q 271 293 281 317 q 254 247 261 269 q 245 206 247 225 q 247 176 243 188 q 263 163 251 168 q 287 154 274 158 q 313 147 300 150 q 335 140 326 144 q 362 122 351 132 q 383 103 372 111 q 406 90 393 94 q 438 89 418 86 q 463 103 446 90 q 501 135 481 115 q 540 178 521 154 q 569 228 558 203 q 597 331 588 271 q 602 444 607 390 q 576 535 597 499 q 511 565 554 571 q 483 558 499 564 q 451 542 467 551 q 423 524 436 533 q 401 507 410 515 z "},"Q":{"ha":1010,"x_min":50,"x_max":964,"o":"m 482 968 q 517 974 494 971 q 565 978 539 976 q 615 978 590 979 q 658 976 640 978 q 808 922 746 965 q 906 817 869 879 q 953 678 942 754 q 953 524 964 603 q 910 369 943 444 q 826 235 878 294 q 776 189 806 211 q 719 146 747 167 q 671 105 692 125 q 646 66 650 85 q 660 31 642 47 q 731 0 679 14 q 760 -2 744 -3 q 793 -2 776 -1 q 828 -8 810 -3 q 863 -29 846 -12 q 899 -89 894 -57 q 871 -139 904 -121 q 834 -142 854 -147 q 794 -125 814 -136 q 758 -103 775 -114 q 731 -87 740 -92 q 652 -58 697 -74 q 560 -31 607 -43 q 467 -9 513 -18 q 386 0 421 0 q 346 -3 372 0 q 293 -7 319 -7 q 247 1 267 -7 q 225 31 226 8 q 253 57 224 46 q 322 76 282 68 q 401 91 361 85 q 460 103 440 97 q 598 168 535 126 q 708 268 661 210 q 786 401 756 326 q 826 565 817 475 q 808 720 835 649 q 728 836 781 792 q 606 890 676 881 q 460 858 536 900 q 420 835 446 851 q 367 799 394 818 q 314 758 339 779 q 276 719 289 736 q 243 649 261 697 q 211 547 225 601 q 193 440 197 492 q 203 360 189 389 q 240 315 215 335 q 287 276 264 294 q 324 238 310 257 q 328 199 338 219 q 296 176 318 178 q 245 183 274 174 q 185 212 217 193 q 127 253 154 231 q 81 301 100 276 q 57 346 61 326 q 51 389 53 365 q 51 435 50 413 q 53 479 51 458 q 57 514 54 500 q 106 679 68 604 q 201 813 144 754 q 331 910 258 871 q 482 968 403 950 z "},"W":{"ha":1232,"x_min":28,"x_max":1206,"o":"m 154 954 q 173 956 160 956 q 200 951 186 956 q 226 938 214 947 q 242 910 238 928 q 237 863 246 890 q 214 808 228 836 q 186 753 200 779 q 168 713 172 728 q 148 628 157 672 q 139 543 139 583 q 144 494 139 518 q 158 447 150 469 q 172 400 165 424 q 183 353 179 376 q 194 272 189 315 q 209 190 199 228 q 239 124 219 151 q 293 96 258 97 q 335 105 315 94 q 370 131 354 115 q 398 166 386 147 q 418 199 410 185 q 456 285 438 235 q 489 388 475 335 q 512 489 503 440 q 521 572 521 538 q 516 607 521 586 q 508 648 511 628 q 508 686 504 668 q 528 713 511 704 q 559 713 540 718 q 595 697 578 708 q 626 672 613 686 q 644 646 640 658 q 658 565 657 610 q 654 475 658 521 q 646 385 650 429 q 644 301 642 340 q 655 239 647 274 q 674 172 663 204 q 699 117 685 140 q 726 89 713 93 q 786 103 751 81 q 855 160 821 126 q 916 228 889 193 q 953 279 943 263 q 1003 378 979 324 q 1041 493 1026 433 q 1058 615 1056 553 q 1049 733 1061 676 q 1032 776 1043 756 q 1009 816 1021 797 q 989 851 997 835 q 982 881 981 868 q 996 909 983 894 q 1024 934 1008 924 q 1057 950 1040 944 q 1085 954 1074 956 q 1139 913 1115 949 q 1178 826 1163 876 q 1199 722 1193 776 q 1203 624 1206 667 q 1144 393 1194 499 q 1026 214 1093 288 q 980 157 1006 190 q 924 91 954 124 q 858 31 893 58 q 785 -10 824 3 q 703 -15 746 -22 q 615 31 661 -7 q 592 59 604 40 q 569 97 581 78 q 547 131 557 117 q 528 147 536 146 q 500 136 514 149 q 475 107 486 124 q 456 76 464 90 q 447 60 449 61 q 388 14 422 32 q 315 -8 353 -4 q 240 0 278 -12 q 168 44 201 13 q 122 115 143 69 q 83 219 100 160 q 53 345 65 278 q 34 482 40 413 q 28 618 28 551 q 36 742 28 685 q 51 802 40 768 q 78 868 63 836 q 114 924 94 900 q 154 954 133 947 z "},"E":{"ha":907,"x_min":24,"x_max":876,"o":"m 718 858 q 649 861 686 865 q 579 858 611 857 q 499 858 536 858 q 433 850 463 857 q 383 826 404 843 q 351 778 363 810 q 338 726 344 758 q 326 660 332 693 q 319 599 321 626 q 322 565 318 572 q 350 545 331 551 q 397 535 369 539 q 458 531 425 532 q 528 529 492 531 q 595 529 557 528 q 667 528 633 531 q 722 517 700 526 q 740 485 744 507 q 710 460 738 467 q 643 451 683 453 q 553 452 603 450 q 458 456 504 454 q 374 457 413 458 q 314 449 335 456 q 272 399 294 440 q 229 305 249 357 q 199 203 210 253 q 190 132 188 154 q 213 78 194 96 q 260 55 232 61 q 322 51 288 49 q 393 56 357 53 q 464 59 429 58 q 528 51 499 60 q 580 47 553 44 q 635 53 607 50 q 691 58 664 57 q 742 49 718 58 q 764 35 754 49 q 772 10 774 22 q 763 -10 772 -1 q 742 -17 753 -18 q 623 -12 682 -8 q 506 -14 564 -17 q 365 -15 438 -10 q 227 -19 292 -21 q 113 -1 163 -18 q 43 67 64 17 q 35 153 24 111 q 66 235 47 194 q 101 318 85 276 q 110 404 118 360 q 96 428 107 418 q 74 447 85 438 q 53 464 63 456 q 43 485 43 472 q 49 508 43 503 q 67 517 56 514 q 92 524 78 519 q 124 543 107 528 q 144 574 132 550 q 167 628 156 597 q 190 691 179 658 q 204 749 200 724 q 207 768 206 754 q 209 797 208 782 q 209 825 210 811 q 204 844 208 839 q 184 856 200 853 q 150 864 168 860 q 117 873 132 868 q 101 888 103 878 q 106 905 100 897 q 123 917 113 913 q 145 926 133 922 q 168 932 157 929 q 262 940 208 940 q 370 937 315 940 q 477 929 425 933 q 568 925 529 925 q 611 925 594 925 q 638 926 628 925 q 655 926 649 926 q 667 926 661 926 q 718 930 685 926 q 784 933 751 933 q 842 927 817 933 q 872 903 868 921 q 862 871 876 883 q 823 853 847 858 q 770 850 799 849 q 718 858 742 851 z "},"R":{"ha":833,"x_min":51,"x_max":783,"o":"m 482 925 q 518 931 497 925 q 563 932 539 936 q 626 907 592 926 q 691 861 660 888 q 746 806 722 835 q 775 756 769 778 q 779 692 783 722 q 763 636 775 663 q 735 586 751 610 q 701 543 718 563 q 651 494 679 517 q 598 451 624 471 q 554 412 572 431 q 533 375 536 393 q 548 301 528 342 q 595 220 568 261 q 644 140 622 179 q 665 67 667 100 q 657 35 664 50 q 640 9 650 19 q 621 -8 631 -1 q 606 -14 611 -14 q 578 -2 589 -15 q 558 30 567 11 q 541 69 549 49 q 525 103 533 89 q 478 176 510 129 q 408 266 446 222 q 330 340 369 310 q 261 367 290 371 q 226 335 238 363 q 206 269 214 308 q 194 183 199 229 q 183 95 190 136 q 164 24 176 54 q 129 -14 151 -7 q 76 -19 93 -26 q 56 8 60 -11 q 56 54 51 26 q 70 110 61 82 q 88 164 79 138 q 100 206 97 190 q 120 328 110 261 q 138 463 131 396 q 149 588 146 529 q 151 682 153 646 q 151 696 151 686 q 149 715 150 706 q 146 733 147 725 q 144 742 144 740 q 126 760 139 754 q 101 774 114 767 q 80 791 89 781 q 71 822 71 801 q 119 878 72 858 q 231 908 165 899 q 365 921 296 918 q 482 925 435 924 m 299 800 q 276 743 290 788 q 252 647 263 699 q 236 548 242 594 q 239 485 231 501 q 286 453 253 457 q 357 456 319 449 q 430 478 394 464 q 482 499 465 492 q 537 526 510 511 q 576 558 564 540 q 620 676 619 617 q 590 778 621 735 q 504 842 560 822 q 379 844 449 863 q 333 827 356 838 q 299 800 310 817 z "},"T":{"ha":729,"x_min":25,"x_max":703,"o":"m 113 917 q 165 922 133 921 q 237 924 197 924 q 322 925 276 925 q 414 925 367 925 q 484 927 440 925 q 571 929 528 929 q 649 924 614 929 q 692 903 683 918 q 695 873 703 883 q 669 857 688 863 q 626 849 651 851 q 575 847 600 847 q 528 844 550 846 q 494 836 506 842 q 469 815 479 829 q 453 779 460 800 q 440 733 446 758 q 428 682 435 708 q 421 633 421 653 q 414 581 421 613 q 401 533 410 563 q 381 472 392 504 q 360 407 369 439 q 347 353 351 375 q 345 290 343 326 q 340 228 347 254 q 328 185 339 221 q 303 109 317 150 q 278 33 290 68 q 260 -7 265 -3 q 235 -17 251 -14 q 203 -21 219 -21 q 173 -19 186 -21 q 157 -14 160 -18 q 149 41 144 -1 q 163 133 153 83 q 185 226 174 182 q 200 286 197 271 q 217 380 210 339 q 230 459 224 421 q 243 538 236 497 q 260 632 250 579 q 272 683 264 654 q 285 742 279 713 q 294 794 292 771 q 289 829 297 818 q 238 848 276 847 q 156 847 199 849 q 76 849 113 846 q 32 874 39 851 q 34 901 25 892 q 58 913 43 910 q 88 915 72 915 q 113 917 104 915 z "},"Y":{"ha":881,"x_min":33,"x_max":849,"o":"m 86 917 q 144 919 126 931 q 167 881 161 907 q 174 818 174 854 q 182 749 175 782 q 203 667 189 717 q 235 565 217 617 q 276 471 254 514 q 321 411 299 428 q 400 380 363 379 q 469 403 438 381 q 526 464 500 425 q 573 547 551 503 q 610 635 594 590 q 636 713 625 679 q 657 785 647 746 q 682 856 667 824 q 723 908 697 888 q 790 925 749 929 q 840 890 831 921 q 840 817 849 858 q 814 735 832 776 q 783 668 796 693 q 746 621 768 640 q 717 588 724 601 q 711 553 713 576 q 703 514 710 531 q 656 428 686 471 q 592 344 625 386 q 525 260 558 301 q 468 176 492 218 q 447 138 461 164 q 415 81 433 111 q 374 19 396 50 q 331 -31 353 -11 q 287 -54 308 -50 q 247 -36 265 -58 q 238 6 232 -17 q 256 51 243 29 q 285 92 269 74 q 307 118 301 110 q 329 151 315 131 q 356 194 343 172 q 376 238 368 217 q 379 272 383 258 q 363 289 376 282 q 334 301 350 296 q 304 309 318 306 q 285 315 290 313 q 148 408 208 347 q 64 581 88 468 q 52 649 58 611 q 42 725 46 688 q 35 795 38 763 q 35 844 33 828 q 49 892 39 876 q 86 917 60 908 z "},"U":{"ha":933,"x_min":26,"x_max":903,"o":"m 210 910 q 263 909 244 924 q 288 864 281 894 q 292 791 294 833 q 283 706 289 749 q 268 626 276 664 q 254 565 260 588 q 249 550 253 560 q 239 529 244 540 q 229 508 233 518 q 224 492 225 497 q 217 417 217 451 q 210 353 218 382 q 196 312 204 333 q 181 267 188 290 q 174 218 175 244 q 181 163 172 192 q 227 87 194 111 q 302 58 260 63 q 392 67 344 54 q 485 101 440 79 q 565 151 529 122 q 621 206 601 179 q 641 240 629 218 q 664 287 653 261 q 685 341 675 313 q 701 397 696 369 q 715 491 710 439 q 726 597 721 543 q 736 702 731 650 q 749 797 742 754 q 768 870 757 840 q 796 910 779 900 q 815 916 801 913 q 844 920 828 919 q 875 917 860 921 q 899 903 890 914 q 901 857 903 897 q 895 766 900 817 q 883 665 890 715 q 869 588 876 614 q 854 552 865 568 q 840 521 843 536 q 840 469 836 496 q 840 411 843 442 q 833 367 838 393 q 823 312 828 342 q 816 249 818 282 q 818 183 814 217 q 830 138 822 158 q 845 101 838 118 q 856 68 853 83 q 856 38 860 53 q 840 17 853 29 q 810 -6 826 4 q 775 -20 793 -15 q 744 -21 757 -25 q 724 3 732 -17 q 709 45 715 22 q 696 88 703 68 q 679 111 689 107 q 645 108 663 117 q 611 87 628 100 q 580 59 594 74 q 554 38 565 44 q 451 -8 510 8 q 333 -28 393 -25 q 217 -17 274 -31 q 117 29 160 -4 q 50 117 74 63 q 33 250 26 171 q 63 404 40 319 q 107 588 86 489 q 125 685 117 632 q 145 785 133 738 q 172 867 157 832 q 210 910 188 901 z "},"I":{"ha":489,"x_min":10,"x_max":478,"o":"m 122 910 q 162 917 132 913 q 230 922 192 921 q 310 924 268 924 q 388 919 353 924 q 448 905 424 914 q 475 881 472 896 q 463 852 478 864 q 429 828 449 840 q 391 801 410 815 q 365 764 372 786 q 365 735 361 751 q 365 704 368 719 q 341 638 360 674 q 314 558 322 601 q 292 408 299 485 q 269 279 285 332 q 258 243 267 271 q 242 183 250 215 q 231 119 235 150 q 233 74 226 88 q 263 51 240 57 q 310 41 286 44 q 356 31 335 38 q 379 8 376 25 q 357 -22 382 -10 q 292 -39 332 -33 q 203 -44 251 -44 q 114 -38 156 -43 q 43 -24 72 -33 q 13 0 14 -14 q 19 25 10 17 q 40 40 28 33 q 66 54 53 47 q 86 74 79 61 q 101 124 94 92 q 112 196 107 157 q 121 274 117 235 q 131 346 125 314 q 156 460 140 404 q 185 565 171 515 q 211 656 200 614 q 225 726 222 697 q 228 785 228 767 q 219 811 228 803 q 189 823 210 819 q 131 836 168 826 q 85 853 103 843 q 71 881 68 863 q 78 901 72 896 q 92 908 85 907 q 108 908 100 910 q 122 910 115 907 z "},"O":{"ha":1163,"x_min":69,"x_max":1097,"o":"m 550 939 q 618 949 579 950 q 697 940 657 947 q 773 922 736 933 q 836 903 810 911 q 958 831 903 881 q 1047 712 1013 782 q 1089 554 1081 642 q 1071 367 1097 467 q 1044 303 1064 343 q 998 219 1024 263 q 946 140 972 176 q 901 89 919 104 q 851 60 889 78 q 767 22 814 42 q 672 -14 719 3 q 594 -36 625 -31 q 445 -46 518 -51 q 310 -19 372 -40 q 199 35 247 1 q 125 111 151 69 q 74 267 78 183 q 90 431 69 351 q 147 580 110 511 q 219 690 183 649 q 251 720 226 699 q 308 765 276 742 q 369 806 339 788 q 418 822 400 824 q 440 817 428 822 q 463 801 453 811 q 480 778 474 792 q 483 749 486 765 q 471 731 482 742 q 445 709 460 719 q 417 689 431 699 q 396 675 403 679 q 338 629 368 656 q 281 571 307 603 q 235 501 254 539 q 213 418 217 463 q 215 376 210 396 q 227 336 219 356 q 243 297 235 317 q 257 257 251 278 q 260 217 263 236 q 264 183 257 199 q 299 133 275 157 q 353 90 324 108 q 411 58 382 71 q 463 44 440 46 q 536 52 492 42 q 626 79 581 63 q 711 115 672 96 q 769 147 750 133 q 828 205 801 169 q 875 282 854 240 q 910 370 896 324 q 931 463 924 417 q 931 582 940 526 q 897 681 922 638 q 831 754 871 725 q 740 793 792 783 q 699 793 721 797 q 656 785 678 789 q 610 779 633 781 q 564 785 586 778 q 522 815 538 793 q 504 862 507 838 q 512 908 501 886 q 550 939 522 929 z "},"P":{"ha":957,"x_min":58,"x_max":907,"o":"m 415 903 q 566 913 488 918 q 712 888 644 908 q 826 831 779 867 q 885 749 874 794 q 891 578 907 649 q 835 458 875 507 q 739 376 796 408 q 621 324 682 344 q 557 301 592 313 q 503 286 522 290 q 437 284 471 279 q 371 279 403 289 q 300 218 322 264 q 262 119 278 172 q 226 22 246 67 q 165 -36 207 -24 q 101 -44 124 -49 q 68 -23 78 -39 q 60 17 58 -7 q 68 68 61 42 q 84 119 75 94 q 100 163 93 144 q 154 269 124 224 q 196 346 185 314 q 206 384 200 361 q 217 433 211 407 q 228 486 222 460 q 239 536 233 513 q 253 588 244 560 q 266 642 261 615 q 272 692 271 669 q 268 726 274 714 q 235 751 258 744 q 186 760 211 757 q 142 771 161 764 q 122 800 122 778 q 129 824 122 818 q 148 831 136 831 q 176 832 160 832 q 210 836 192 832 q 258 851 231 842 q 313 872 285 861 q 368 890 342 882 q 415 903 394 899 m 393 536 q 383 505 392 525 q 367 463 375 485 q 356 420 360 440 q 357 389 351 400 q 399 370 367 372 q 472 374 432 368 q 547 389 511 379 q 599 404 583 399 q 682 460 647 422 q 734 546 717 499 q 751 642 751 593 q 729 733 750 692 q 665 799 708 774 q 554 822 622 824 q 460 801 489 821 q 419 744 431 781 q 406 654 408 707 q 393 536 404 601 z "},"z":{"ha":664,"x_min":22,"x_max":642,"o":"m 603 114 q 588 82 608 100 q 540 47 568 64 q 485 18 513 31 q 449 4 457 6 q 366 3 407 -4 q 285 24 325 11 q 210 53 246 38 q 140 76 174 68 q 92 83 115 83 q 53 85 69 82 q 29 101 36 88 q 31 150 22 114 q 44 177 33 165 q 70 199 56 189 q 100 218 85 208 q 126 239 115 228 q 203 323 168 278 q 279 422 238 368 q 311 456 292 438 q 351 493 331 474 q 388 531 371 513 q 415 568 406 550 q 421 601 424 586 q 397 626 418 615 q 385 630 392 629 q 372 631 379 631 q 269 615 322 632 q 163 579 215 597 q 140 581 151 575 q 126 597 129 586 q 126 619 121 608 q 144 635 132 631 q 253 671 196 651 q 372 690 310 690 q 386 690 378 690 q 401 692 394 690 q 419 693 410 692 q 489 691 454 688 q 552 697 524 694 q 602 695 581 699 q 632 671 624 692 q 627 622 642 646 q 588 575 613 597 q 538 534 564 553 q 500 503 513 515 q 486 475 490 492 q 471 443 482 458 q 438 417 457 428 q 404 392 418 407 q 349 315 376 360 q 294 239 321 269 q 272 218 283 226 q 251 200 260 210 q 241 177 243 190 q 250 143 239 164 q 270 125 254 135 q 306 106 286 115 q 349 91 326 97 q 390 85 371 85 q 447 93 413 83 q 513 113 481 103 q 570 125 544 122 q 603 114 596 128 z "},"x":{"ha":753,"x_min":11,"x_max":740,"o":"m 722 217 q 689 178 703 201 q 661 136 675 154 q 623 84 644 107 q 576 47 601 61 q 521 28 551 32 q 456 33 490 24 q 414 57 429 40 q 388 95 399 74 q 370 140 378 117 q 351 181 363 163 q 324 209 340 199 q 279 217 307 219 q 253 197 271 214 q 211 157 235 181 q 160 106 188 133 q 103 57 132 79 q 79 51 92 50 q 58 64 67 53 q 51 86 50 74 q 64 107 53 99 q 113 151 85 124 q 168 204 142 178 q 229 268 199 235 q 240 296 228 286 q 269 315 253 306 q 303 339 286 325 q 331 378 321 353 q 344 473 350 428 q 318 545 339 518 q 264 574 297 572 q 193 540 231 576 q 127 447 157 497 q 65 344 97 396 q 47 331 58 333 q 26 336 36 329 q 14 353 17 343 q 18 374 11 364 q 60 438 36 400 q 108 511 85 475 q 163 597 135 553 q 194 641 176 619 q 235 677 213 663 q 286 697 257 692 q 353 693 315 703 q 393 667 376 686 q 423 628 410 649 q 449 589 436 607 q 478 568 463 571 q 505 571 490 565 q 535 587 519 576 q 567 610 551 597 q 596 635 582 622 q 615 654 601 640 q 644 678 629 668 q 674 688 660 689 q 697 664 689 688 q 687 633 701 654 q 653 588 672 611 q 614 545 633 565 q 588 517 594 525 q 535 458 564 489 q 485 390 506 428 q 458 305 464 351 q 471 201 451 258 q 494 166 478 181 q 530 147 510 151 q 572 152 550 143 q 610 188 593 161 q 645 233 629 207 q 685 274 661 258 q 710 278 696 281 q 732 264 725 275 q 737 238 740 253 q 722 217 733 224 z "},"c":{"ha":732,"x_min":14,"x_max":717,"o":"m 382 686 q 460 692 418 692 q 539 682 501 692 q 603 650 576 672 q 639 590 631 628 q 638 523 644 560 q 615 456 631 486 q 576 410 599 426 q 529 407 553 394 q 508 434 514 414 q 501 477 503 454 q 501 519 500 500 q 499 546 501 539 q 459 592 486 581 q 400 598 432 603 q 336 575 368 593 q 279 532 304 557 q 236 469 256 507 q 205 386 217 431 q 192 296 193 342 q 201 211 190 250 q 238 144 213 172 q 308 107 264 115 q 360 108 332 103 q 419 123 389 113 q 477 147 449 133 q 529 172 506 161 q 558 193 533 174 q 615 233 583 213 q 674 268 646 254 q 713 275 703 282 q 717 260 717 272 q 714 231 717 247 q 707 201 711 215 q 697 179 703 186 q 654 142 686 164 q 583 97 622 119 q 505 57 544 75 q 440 33 465 39 q 244 35 329 8 q 96 121 158 63 q 76 140 89 126 q 51 169 64 153 q 27 202 38 186 q 15 231 17 218 q 21 269 14 239 q 38 336 28 300 q 60 407 49 372 q 81 458 72 442 q 128 523 99 489 q 176 575 157 557 q 267 642 211 610 q 382 686 324 675 z "},"v":{"ha":704,"x_min":14,"x_max":688,"o":"m 136 686 q 187 680 171 690 q 205 649 203 669 q 200 599 207 628 q 183 542 193 571 q 163 485 172 513 q 151 436 153 457 q 149 347 147 400 q 160 244 150 294 q 187 157 169 194 q 232 114 204 119 q 270 119 249 110 q 313 142 292 128 q 349 169 333 156 q 371 188 365 182 q 434 260 401 215 q 490 354 467 304 q 524 453 514 404 q 518 539 533 503 q 499 572 511 556 q 474 606 488 589 q 460 614 469 610 q 442 624 450 618 q 430 640 433 631 q 438 664 426 650 q 468 675 446 676 q 517 664 490 674 q 574 638 544 654 q 627 605 603 622 q 668 572 651 588 q 686 546 685 556 q 681 519 688 538 q 666 478 675 501 q 644 427 657 454 q 620 376 632 400 q 599 333 608 353 q 583 304 589 314 q 562 276 576 290 q 532 239 547 263 q 500 191 515 211 q 467 154 485 171 q 428 122 450 138 q 378 85 407 106 q 269 37 319 42 q 176 55 218 32 q 103 124 135 78 q 51 231 71 171 q 22 358 31 290 q 19 494 14 426 q 31 563 22 529 q 56 622 40 596 q 91 665 71 649 q 136 686 111 682 z "},"b":{"ha":606,"x_min":7,"x_max":593,"o":"m 13 311 q 24 406 7 369 q 69 473 42 443 q 125 534 96 503 q 174 613 154 565 q 187 671 181 629 q 202 763 193 713 q 224 867 211 814 q 256 958 236 919 q 304 1013 276 996 q 371 1008 332 1029 q 405 969 394 996 q 416 910 415 943 q 410 844 417 878 q 393 781 403 810 q 368 736 389 768 q 328 665 347 704 q 299 588 308 626 q 306 524 289 549 q 325 513 310 517 q 359 504 340 508 q 395 494 378 500 q 422 481 413 489 q 442 449 436 467 q 453 413 447 432 q 467 374 458 393 q 496 340 475 356 q 531 323 515 326 q 560 317 547 319 q 580 311 572 315 q 592 290 588 307 q 582 264 593 283 q 556 222 571 244 q 528 181 542 200 q 511 157 515 163 q 451 96 486 126 q 372 44 415 65 q 281 16 329 24 q 181 25 232 8 q 158 37 171 28 q 134 58 146 46 q 113 81 122 69 q 100 99 104 92 q 92 149 90 118 q 97 213 94 181 q 99 274 100 244 q 85 319 99 303 q 68 326 76 329 q 51 317 60 324 q 34 307 43 311 q 13 311 25 303 m 247 121 q 301 119 271 106 q 354 162 331 132 q 390 231 378 192 q 393 304 403 269 q 372 338 388 322 q 335 365 356 354 q 297 381 315 376 q 268 378 278 385 q 253 353 261 372 q 240 309 246 335 q 229 253 233 283 q 225 197 225 224 q 231 149 225 169 q 247 121 236 128 z "},"n":{"ha":868,"x_min":60,"x_max":810,"o":"m 115 671 q 158 683 139 688 q 193 663 178 679 q 219 624 208 647 q 240 579 231 601 q 257 541 250 557 q 269 524 264 525 q 317 538 294 517 q 361 588 339 558 q 406 644 383 617 q 453 678 428 671 q 531 681 490 688 q 605 658 571 675 q 662 617 639 642 q 688 561 685 592 q 688 530 689 549 q 686 490 688 511 q 681 444 685 468 q 672 400 678 421 q 651 335 665 371 q 625 267 636 300 q 612 209 614 235 q 629 172 610 183 q 663 167 649 161 q 690 186 678 172 q 711 219 701 200 q 733 252 721 238 q 758 273 744 267 q 790 268 772 279 q 809 233 810 256 q 794 185 808 211 q 754 130 779 158 q 703 78 729 101 q 653 38 678 54 q 614 18 629 21 q 525 17 560 8 q 470 49 490 26 q 442 106 450 72 q 437 179 435 140 q 447 260 439 218 q 468 340 456 301 q 487 386 472 354 q 513 453 501 418 q 525 519 524 489 q 504 561 526 550 q 442 561 471 578 q 388 513 413 544 q 345 447 364 482 q 314 392 326 413 q 269 326 294 361 q 233 268 243 292 q 224 228 228 256 q 213 166 219 200 q 198 98 207 132 q 174 41 189 64 q 138 11 158 18 q 86 25 117 4 q 60 81 61 42 q 69 163 60 119 q 91 248 78 207 q 108 311 104 289 q 115 395 115 354 q 115 465 115 436 q 108 526 115 494 q 97 585 101 557 q 95 635 93 613 q 115 671 97 658 z "},"m":{"ha":1101,"x_min":38,"x_max":1065,"o":"m 82 671 q 151 685 122 697 q 200 646 179 672 q 235 592 221 619 q 265 561 250 564 q 308 572 289 556 q 345 610 328 588 q 381 653 363 632 q 419 678 399 674 q 487 678 461 688 q 532 653 513 668 q 569 622 551 638 q 610 606 586 607 q 658 619 633 603 q 713 653 683 636 q 778 679 743 671 q 858 671 814 688 q 895 647 876 664 q 930 608 914 629 q 956 562 946 586 q 969 517 967 538 q 967 471 971 496 q 956 419 963 446 q 942 365 949 393 q 932 311 935 338 q 930 290 932 304 q 928 262 928 276 q 930 234 928 247 q 940 217 932 221 q 964 217 953 210 q 985 237 975 225 q 1006 259 996 249 q 1028 268 1015 269 q 1061 238 1057 263 q 1054 181 1065 213 q 1022 116 1043 149 q 983 63 1001 83 q 965 46 976 54 q 942 30 954 38 q 919 17 931 22 q 903 11 908 13 q 825 15 856 3 q 777 53 794 26 q 755 120 760 81 q 757 208 750 160 q 774 287 761 246 q 799 367 786 328 q 822 442 813 407 q 829 503 831 476 q 816 548 828 532 q 787 569 804 564 q 748 567 769 574 q 706 546 726 561 q 675 515 693 536 q 640 467 657 493 q 608 415 622 442 q 588 371 593 389 q 582 342 583 360 q 578 303 581 324 q 574 260 576 282 q 565 217 571 238 q 549 182 560 197 q 536 150 539 167 q 531 96 532 126 q 522 42 529 65 q 494 8 514 18 q 433 18 475 -1 q 404 76 406 32 q 415 180 403 121 q 444 306 426 239 q 474 430 463 372 q 482 528 485 488 q 449 575 479 568 q 421 567 438 578 q 385 536 404 556 q 347 492 367 517 q 310 444 326 468 q 281 401 293 421 q 265 371 269 381 q 253 328 257 351 q 248 282 250 306 q 243 235 246 258 q 236 194 240 213 q 224 151 232 178 q 206 97 215 124 q 187 50 196 71 q 169 25 178 29 q 115 9 139 7 q 73 26 90 11 q 47 63 56 40 q 38 107 38 86 q 51 192 38 149 q 80 283 65 235 q 103 385 94 331 q 104 503 113 439 q 91 545 101 521 q 72 593 81 569 q 63 638 64 617 q 82 671 63 658 z "},",":{"ha":269,"x_min":36,"x_max":235,"o":"m 103 224 q 178 215 149 236 q 222 158 208 194 q 231 74 235 121 q 204 -11 226 28 q 179 -49 197 -25 q 140 -93 161 -72 q 97 -126 118 -114 q 58 -128 75 -139 q 46 -103 47 -122 q 47 -60 44 -85 q 51 -10 49 -36 q 51 40 53 17 q 42 99 49 71 q 38 153 36 128 q 53 196 39 178 q 103 224 67 214 z "},".":{"ha":342,"x_min":33,"x_max":303,"o":"m 164 224 q 201 216 178 225 q 247 190 225 207 q 286 151 269 174 q 303 107 303 129 q 282 53 303 78 q 231 11 261 29 q 170 -15 201 -7 q 119 -18 139 -22 q 50 31 67 -6 q 42 108 33 67 q 84 183 51 149 q 164 224 117 217 z "},"Z":{"ha":840,"x_min":25,"x_max":817,"o":"m 494 964 q 533 967 507 964 q 591 972 558 969 q 659 974 624 974 q 726 969 694 974 q 780 952 757 964 q 810 921 803 940 q 813 888 817 901 q 797 859 808 874 q 767 828 785 844 q 729 789 749 813 q 708 747 715 771 q 686 707 700 722 q 631 660 660 678 q 583 619 601 643 q 560 575 567 597 q 539 532 554 553 q 497 484 519 506 q 450 443 474 463 q 403 403 426 424 q 363 356 381 382 q 347 316 353 342 q 326 268 342 290 q 300 236 315 250 q 272 210 285 222 q 251 185 258 197 q 246 157 243 172 q 267 131 249 144 q 311 106 286 118 q 361 87 336 94 q 400 76 386 79 q 474 74 429 72 q 566 77 518 75 q 659 78 614 79 q 736 69 704 78 q 780 42 768 61 q 774 -11 792 24 q 744 -30 767 -24 q 694 -38 722 -36 q 635 -39 665 -40 q 583 -33 604 -37 q 565 -26 576 -32 q 542 -15 554 -21 q 519 -3 529 -8 q 503 4 508 3 q 441 10 471 10 q 382 10 411 11 q 326 6 353 8 q 275 4 300 4 q 202 5 244 4 q 120 13 160 6 q 53 35 81 19 q 25 85 25 51 q 44 132 25 107 q 91 183 64 157 q 145 232 118 208 q 188 275 172 256 q 256 378 219 317 q 340 494 292 439 q 378 535 361 517 q 413 572 396 554 q 445 608 429 590 q 481 649 461 626 q 517 691 496 667 q 556 740 539 715 q 583 790 574 765 q 583 832 592 814 q 540 856 574 850 q 460 862 506 863 q 363 857 414 861 q 267 852 311 853 q 190 858 222 851 q 150 883 157 864 q 156 930 139 913 q 204 956 172 947 q 279 967 236 965 q 364 969 322 969 q 441 966 406 968 q 494 964 476 964 z "},"X":{"ha":856,"x_min":28,"x_max":826,"o":"m 186 979 q 236 951 214 979 q 277 882 258 924 q 313 792 296 840 q 349 701 331 743 q 388 629 367 658 q 436 597 410 600 q 469 605 453 596 q 501 629 485 614 q 535 665 518 644 q 568 707 551 685 q 630 778 599 747 q 678 840 661 810 q 691 872 686 854 q 701 904 696 889 q 715 932 707 919 q 736 950 722 944 q 758 951 746 953 q 783 943 771 949 q 806 929 796 938 q 818 913 815 921 q 809 854 826 885 q 765 794 792 824 q 711 739 739 765 q 671 693 683 713 q 659 662 663 681 q 649 635 656 643 q 615 601 636 617 q 572 567 593 585 q 535 528 551 549 q 517 481 518 507 q 522 443 515 463 q 541 403 529 424 q 566 365 553 383 q 590 333 579 347 q 619 303 601 318 q 655 271 636 288 q 693 237 674 254 q 729 201 713 219 q 745 183 735 194 q 765 158 756 172 q 782 128 775 143 q 788 99 789 113 q 778 67 788 83 q 753 38 768 51 q 718 17 738 25 q 678 11 699 8 q 638 33 657 13 q 601 80 618 54 q 569 132 583 106 q 546 172 556 158 q 514 225 529 197 q 482 276 499 253 q 449 317 465 300 q 414 333 432 333 q 347 305 381 335 q 282 234 314 275 q 222 151 250 193 q 172 85 193 108 q 128 47 156 65 q 76 23 100 28 q 40 35 53 18 q 40 107 28 53 q 53 128 43 118 q 74 145 63 138 q 94 158 85 153 q 106 165 103 163 q 160 228 128 188 q 231 311 192 269 q 265 346 244 326 q 303 386 285 365 q 335 427 322 407 q 349 465 349 447 q 332 515 349 485 q 294 578 315 546 q 250 639 272 610 q 217 686 228 668 q 185 738 200 711 q 150 796 169 765 q 134 818 144 806 q 113 845 124 831 q 96 875 103 860 q 92 906 89 890 q 101 925 93 913 q 123 949 110 938 q 153 970 136 961 q 186 979 169 979 z "},"C":{"ha":878,"x_min":64,"x_max":815,"o":"m 625 957 q 665 951 643 956 q 710 935 688 946 q 750 910 732 925 q 779 876 768 896 q 793 808 793 849 q 783 727 793 767 q 756 658 772 688 q 721 626 739 629 q 674 635 686 621 q 658 674 661 649 q 653 732 654 700 q 640 796 653 764 q 588 856 622 842 q 515 866 554 871 q 436 841 475 861 q 368 796 397 821 q 333 762 351 781 q 299 724 315 743 q 271 685 283 704 q 251 649 258 665 q 222 558 235 611 q 204 449 210 506 q 203 334 199 392 q 222 231 207 276 q 251 183 229 210 q 302 134 272 157 q 365 95 332 111 q 428 76 399 79 q 490 85 453 75 q 565 112 526 96 q 635 147 603 128 q 683 179 668 165 q 703 208 693 189 q 724 244 713 226 q 748 273 735 261 q 779 282 761 285 q 810 258 804 278 q 810 212 815 238 q 791 160 804 186 q 764 121 778 135 q 667 50 726 78 q 538 10 607 22 q 394 6 468 -1 q 251 40 319 13 q 144 119 185 67 q 83 240 103 172 q 64 383 64 307 q 81 534 64 460 q 128 675 97 608 q 200 789 158 742 q 252 835 217 808 q 328 886 288 861 q 409 931 368 911 q 479 957 450 950 q 551 962 511 964 q 625 957 592 960 z "},"V":{"ha":918,"x_min":17,"x_max":901,"o":"m 817 972 q 867 956 849 976 q 893 903 885 936 q 901 828 901 869 q 897 751 901 788 q 888 708 894 732 q 871 660 881 683 q 852 614 861 636 q 839 575 843 592 q 831 541 832 554 q 828 518 829 528 q 827 501 828 508 q 824 488 826 494 q 801 451 815 469 q 769 415 786 433 q 733 374 751 396 q 699 326 715 353 q 672 282 686 306 q 642 235 657 258 q 613 192 628 213 q 582 157 597 171 q 528 122 560 139 q 472 85 497 104 q 435 52 454 71 q 393 18 415 33 q 345 -7 371 3 q 289 -11 319 -17 q 258 6 276 -10 q 220 44 239 22 q 183 90 201 65 q 156 136 165 115 q 143 166 151 146 q 126 212 135 186 q 107 267 117 238 q 90 326 97 297 q 74 394 81 364 q 64 455 68 425 q 58 516 60 485 q 54 583 56 547 q 35 654 51 621 q 17 715 19 688 q 17 753 17 722 q 19 818 17 783 q 24 883 21 853 q 32 921 26 913 q 60 940 39 932 q 104 951 81 949 q 149 951 128 954 q 178 935 169 947 q 181 916 182 928 q 177 890 181 904 q 169 861 174 876 q 164 832 165 846 q 164 657 156 739 q 174 603 167 631 q 189 549 181 575 q 205 501 197 522 q 215 465 213 479 q 217 419 221 435 q 215 392 213 403 q 229 333 218 374 q 256 249 240 292 q 292 174 272 207 q 332 136 311 140 q 374 141 350 132 q 423 167 399 150 q 469 203 447 183 q 508 239 492 222 q 594 346 558 290 q 663 481 631 401 q 681 529 671 500 q 701 590 692 558 q 718 653 711 622 q 728 707 725 683 q 726 750 729 728 q 717 793 722 772 q 707 833 711 814 q 706 869 703 853 q 722 905 708 888 q 753 937 736 922 q 788 960 769 951 q 817 972 806 969 z "},"¾":{"ha":617,"x_min":15,"x_max":603,"o":"m 553 93 q 555 167 546 128 q 574 243 564 206 q 588 313 585 281 q 575 365 592 344 q 527 385 554 390 q 473 358 500 379 q 422 310 446 338 q 385 263 399 282 q 331 200 358 231 q 275 143 304 169 l 275 144 q 241 107 258 124 q 212 75 224 90 q 198 42 200 60 q 208 -1 196 24 q 250 -33 221 -28 q 312 -35 279 -37 q 375 -31 344 -33 q 421 -39 406 -29 q 436 -62 432 -46 q 445 -92 440 -78 q 460 -117 450 -107 q 494 -119 471 -126 q 510 -110 508 -115 q 512 -96 513 -104 q 514 -75 511 -87 q 532 -46 517 -62 q 552 -32 542 -35 q 571 -28 563 -29 q 586 -25 579 -28 q 597 -10 593 -22 q 597 18 603 6 q 583 42 592 31 q 565 66 575 54 q 553 93 556 78 m 450 64 q 411 47 439 51 q 358 47 383 43 q 320 61 333 50 q 326 93 307 72 l 325 94 q 383 152 357 122 q 436 211 410 182 q 465 231 451 228 q 472 218 478 233 q 465 189 464 208 q 467 147 465 169 q 466 102 468 125 q 450 64 464 79 m 297 775 q 300 740 294 760 q 311 698 306 721 q 321 652 317 675 q 320 608 325 629 q 299 568 315 586 q 249 539 282 550 q 192 517 221 524 q 136 510 164 510 q 44 525 90 510 q 22 542 29 529 q 19 569 15 554 q 37 592 24 585 q 65 594 50 599 q 136 582 100 582 q 179 591 160 582 q 211 614 199 600 q 229 645 224 628 q 231 681 235 663 q 210 708 226 699 q 177 725 194 718 q 144 740 160 732 q 128 761 129 747 q 135 790 125 779 q 162 810 146 801 q 197 824 178 818 q 231 840 217 831 q 253 861 246 849 q 253 893 260 874 q 228 913 246 913 q 186 905 210 913 q 138 886 163 897 q 92 871 113 875 q 56 876 71 867 q 40 915 42 885 q 64 958 39 939 q 126 990 89 978 q 206 1003 163 1001 q 284 991 249 1004 q 340 949 319 978 q 356 871 361 919 q 345 849 354 860 q 326 826 336 838 q 308 801 317 814 q 297 775 299 788 m 82 314 q 322 404 203 360 q 563 494 440 449 q 583 513 576 500 q 583 540 589 526 q 565 561 578 556 q 538 561 551 567 q 297 471 417 515 q 56 381 178 426 q 36 362 42 375 q 36 333 31 349 q 55 314 42 319 q 82 314 68 308 z "},")":{"ha":464,"x_min":28,"x_max":438,"o":"m 242 1022 q 272 1022 254 1032 q 307 995 290 1013 q 338 958 324 978 q 358 926 351 939 q 380 878 369 906 q 400 822 390 850 q 416 769 410 794 q 425 728 422 744 q 427 545 438 639 q 394 365 417 451 q 344 204 372 278 q 293 83 315 131 q 256 35 281 57 q 213 -12 231 13 q 185 -60 204 -24 q 143 -133 167 -97 q 93 -192 119 -169 q 43 -196 67 -214 q 33 -163 28 -185 q 49 -119 38 -142 q 74 -81 61 -97 q 88 -64 86 -65 q 160 64 124 -7 q 226 217 197 135 q 274 391 256 299 q 293 582 293 483 q 275 751 293 669 q 242 897 257 832 q 235 932 238 913 q 231 970 232 951 q 233 1003 231 989 q 242 1022 235 1017 z "},"(":{"ha":396,"x_min":6,"x_max":389,"o":"m 315 1022 q 344 1030 338 1029 q 356 1031 351 1031 q 389 1004 389 1031 q 371 952 389 983 q 330 890 353 921 q 288 834 307 858 q 264 801 268 810 q 258 768 257 786 q 250 728 258 750 q 228 692 243 710 q 206 656 213 675 q 185 553 189 608 q 168 450 182 499 q 157 422 164 435 q 144 399 150 410 q 135 378 139 389 q 131 353 131 367 q 135 292 131 326 q 140 222 140 257 q 133 167 140 193 q 125 126 125 140 q 133 92 125 111 q 151 56 142 74 q 168 21 160 38 q 176 -6 176 4 q 172 -31 176 -19 q 168 -64 168 -43 q 179 -112 168 -85 q 189 -161 190 -139 q 181 -187 189 -175 q 154 -199 174 -199 q 113 -174 131 -199 q 81 -113 94 -149 q 58 -40 67 -78 q 44 24 49 -1 q 19 129 33 86 q 6 211 6 172 q 33 451 6 333 q 103 675 60 569 q 203 869 147 781 q 315 1022 258 958 z "},"\"":{"ha":594,"x_min":10,"x_max":582,"o":"m 113 949 q 174 956 150 963 q 212 931 199 950 q 228 884 225 913 q 228 825 232 856 q 215 765 225 794 q 193 714 206 736 q 153 669 179 690 q 98 633 126 647 q 44 618 69 619 q 10 633 19 617 q 38 782 24 715 q 49 839 43 811 q 63 890 56 867 q 76 928 69 913 q 90 949 83 944 l 113 949 m 406 940 q 471 960 439 960 q 528 949 503 961 q 567 913 553 936 q 582 860 582 889 q 563 790 581 829 q 519 717 544 751 q 467 656 494 682 q 421 625 440 631 q 353 617 376 614 q 323 635 331 621 q 319 674 315 650 q 333 724 324 697 q 353 778 342 750 q 369 831 364 806 q 374 869 374 853 q 377 899 375 886 q 385 922 379 913 q 406 940 390 932 z "},"'":{"ha":236,"x_min":13,"x_max":224,"o":"m 17 611 q 15 634 13 625 q 23 651 17 643 q 36 669 29 660 q 47 692 43 678 q 57 749 54 717 q 63 814 60 782 q 69 872 65 846 q 83 911 74 899 q 102 924 89 917 q 132 935 115 931 q 165 939 149 939 q 193 933 182 939 q 209 914 203 929 q 219 880 215 899 q 223 842 222 861 q 222 808 224 822 q 200 728 218 771 q 154 654 182 686 q 91 608 126 622 q 17 611 56 593 z "},"_":{"ha":772,"x_min":21,"x_max":750,"o":"m 57 -260 q 31 -250 42 -260 q 21 -225 21 -240 q 31 -199 21 -210 q 56 -189 40 -189 l 193 -189 q 419 -190 307 -189 q 646 -190 532 -190 l 714 -190 q 739 -200 729 -190 q 749 -225 749 -210 q 740 -251 750 -240 q 714 -261 729 -261 l 646 -261 q 419 -260 532 -261 q 193 -258 306 -258 q 124 -258 158 -258 q 57 -260 90 -258 z "},"-":{"ha":629,"x_min":11,"x_max":618,"o":"m 65 383 q 96 388 75 388 q 141 388 117 389 q 190 385 165 386 q 233 383 214 383 q 340 389 276 383 q 463 394 403 394 q 567 383 524 394 q 615 339 611 372 q 604 299 618 311 q 567 282 590 286 q 516 279 544 278 q 461 281 488 281 q 396 281 435 281 q 315 281 357 281 q 231 281 272 281 q 160 281 190 281 q 107 281 132 281 q 62 284 82 281 q 29 297 42 288 q 14 325 17 306 q 14 353 11 343 q 24 368 17 363 q 42 376 32 374 q 65 383 53 379 z "},"=":{"ha":553,"x_min":19,"x_max":532,"o":"m 57 449 q 31 462 42 450 q 21 490 19 474 q 34 516 22 506 q 61 526 46 526 q 109 524 85 524 q 157 524 133 524 q 258 525 207 524 q 361 526 308 526 q 428 525 394 526 q 496 521 461 524 q 522 507 511 519 q 531 479 532 494 q 516 453 528 464 q 489 444 504 443 q 425 449 457 447 q 361 450 393 450 q 260 448 311 450 q 157 446 210 446 q 107 447 132 446 q 57 449 82 447 m 475 303 q 501 292 490 303 q 511 265 511 281 q 499 240 510 250 q 472 229 488 229 q 405 231 439 231 q 338 231 371 231 q 200 230 268 231 q 63 229 132 229 q 37 240 47 229 q 26 267 26 251 q 37 292 26 282 q 63 303 47 303 q 200 303 132 303 q 338 304 268 304 q 406 304 372 304 q 475 303 440 304 z "},";":{"ha":357,"x_min":28,"x_max":331,"o":"m 182 686 q 206 693 193 689 q 233 693 218 697 q 259 676 243 690 q 290 642 275 661 q 317 605 306 624 q 329 576 329 586 q 308 525 331 551 q 255 478 286 499 q 190 447 224 457 q 131 444 156 436 q 106 464 119 449 q 82 499 93 479 q 64 538 71 518 q 57 569 57 557 q 73 610 58 590 q 107 645 88 629 q 147 672 126 661 q 182 686 168 683 m 138 210 q 185 206 164 215 q 222 176 207 196 q 247 129 238 157 q 256 71 256 101 q 242 2 256 38 q 208 -64 228 -33 q 166 -116 188 -94 q 131 -142 144 -137 q 76 -156 94 -156 q 53 -145 58 -156 q 49 -117 47 -135 q 56 -75 51 -99 q 65 -25 61 -51 q 64 26 68 1 q 56 53 61 42 q 44 73 50 64 q 33 90 38 82 q 28 107 28 97 q 41 138 29 121 q 70 169 53 154 q 106 196 88 185 q 138 210 124 207 z "},"N":{"ha":1003,"x_min":39,"x_max":965,"o":"m 64 407 q 76 486 68 450 q 93 561 85 522 q 106 618 99 589 q 121 678 114 647 q 132 738 128 708 q 136 796 136 768 q 129 842 136 810 q 122 905 122 874 q 134 958 121 936 q 188 972 147 979 q 247 938 213 968 q 315 869 281 907 q 378 791 349 831 q 422 729 407 751 q 473 646 453 685 q 510 569 493 607 q 544 496 528 532 q 583 422 561 460 q 609 380 594 404 q 641 333 624 356 q 676 294 658 310 q 710 276 693 278 q 741 290 726 274 q 767 349 756 306 q 784 443 779 394 q 792 542 789 492 q 798 642 794 592 q 811 738 801 692 q 827 778 817 760 q 840 810 838 796 q 841 848 843 829 q 838 883 839 867 q 840 913 838 900 q 856 935 843 926 q 885 943 868 943 q 917 938 901 943 q 944 926 932 933 q 958 913 956 918 q 960 860 965 896 q 946 784 956 824 q 926 710 936 744 q 914 664 915 676 q 914 628 911 647 q 914 590 917 610 q 892 498 910 544 q 869 407 875 451 q 866 331 865 375 q 866 241 867 288 q 862 149 865 194 q 847 68 858 104 q 815 10 836 32 q 760 -11 794 -11 q 716 8 740 -11 q 665 56 692 26 q 613 120 639 85 q 565 190 588 156 q 524 253 542 224 q 496 297 506 282 q 450 385 471 338 q 400 488 429 433 q 376 528 392 501 q 340 581 360 556 q 301 625 321 607 q 268 642 282 643 q 235 619 247 639 q 215 571 222 600 q 204 508 208 542 q 196 443 200 474 q 184 369 192 408 q 168 291 176 331 q 153 214 160 251 q 144 143 146 176 q 140 74 142 107 q 131 19 138 42 q 111 -12 125 -3 q 71 -11 97 -21 q 42 24 46 -3 q 43 84 39 50 q 52 154 47 118 q 51 219 57 190 l 64 407 z "},"M":{"ha":1136,"x_min":31,"x_max":1107,"o":"m 317 935 q 382 930 357 951 q 423 867 407 908 q 449 773 439 825 q 471 678 460 721 q 488 619 478 649 q 506 564 497 590 q 520 517 514 538 q 529 488 526 497 q 536 428 535 460 q 541 369 538 397 q 551 322 544 342 q 574 297 557 301 q 611 317 589 293 q 656 377 633 342 q 699 448 679 413 q 728 503 718 483 q 758 589 747 542 q 786 671 768 636 q 826 745 801 703 q 860 825 851 788 q 864 863 865 847 q 862 890 863 878 q 863 910 861 901 q 874 928 864 919 q 892 935 879 932 q 919 938 904 938 q 949 935 935 938 q 969 928 963 933 q 981 901 971 926 q 1002 843 990 876 q 1023 774 1014 810 q 1035 715 1032 738 q 1031 668 1038 689 q 1028 619 1024 647 q 1043 581 1032 596 q 1057 539 1054 567 q 1063 463 1063 497 q 1062 397 1063 429 q 1061 331 1061 364 q 1065 260 1061 299 q 1083 208 1068 236 q 1101 150 1097 179 q 1101 75 1107 111 q 1082 14 1096 39 q 1045 -22 1068 -11 q 992 -18 1022 -32 q 972 4 978 -12 q 965 40 967 21 q 963 80 963 60 q 963 114 964 100 q 956 135 961 121 q 945 167 951 150 q 933 201 939 185 q 925 231 926 218 q 918 312 919 268 q 913 394 917 356 q 901 461 910 433 q 874 494 893 489 q 838 478 853 500 q 812 422 824 456 q 790 355 800 389 q 771 304 781 321 q 749 274 763 289 q 719 243 735 258 q 690 214 704 228 q 668 188 676 200 q 640 135 656 168 q 601 77 624 103 q 547 42 578 51 q 471 63 515 33 q 449 95 456 72 q 438 147 442 118 q 430 208 433 176 q 419 268 426 240 q 413 291 418 272 q 401 335 408 310 q 385 389 393 360 q 367 442 376 418 q 351 484 358 467 q 339 503 344 501 q 300 492 313 511 q 283 444 288 472 q 276 388 278 417 q 272 349 275 360 q 233 251 261 308 q 185 136 206 194 q 166 86 179 119 q 135 24 153 53 q 94 -17 117 -4 q 46 -4 71 -29 q 31 31 31 10 q 40 76 32 53 q 58 120 47 99 q 75 157 69 142 q 114 266 93 207 q 156 385 135 325 q 196 502 176 444 q 229 606 215 560 q 259 706 244 654 q 281 796 274 758 q 282 840 285 818 q 280 879 279 861 q 288 911 281 897 q 317 935 294 925 z "},"–":{"ha":629,"x_min":11,"x_max":618,"o":"m 65 383 q 96 388 75 388 q 141 388 117 389 q 190 385 165 386 q 233 383 214 383 q 340 389 276 383 q 463 394 403 394 q 567 383 524 394 q 615 339 611 372 q 604 299 618 311 q 567 282 590 286 q 516 279 544 278 q 461 281 488 281 q 396 281 435 281 q 315 281 357 281 q 231 281 272 281 q 160 281 190 281 q 107 281 132 281 q 62 284 82 281 q 29 297 42 288 q 14 325 17 306 q 14 353 11 343 q 24 368 17 363 q 42 376 32 374 q 65 383 53 379 z "},"—":{"ha":629,"x_min":11,"x_max":618,"o":"m 65 383 q 96 388 75 388 q 141 388 117 389 q 190 385 165 386 q 233 383 214 383 q 340 389 276 383 q 463 394 403 394 q 567 383 524 394 q 615 339 611 372 q 604 299 618 311 q 567 282 590 286 q 516 279 544 278 q 461 281 488 281 q 396 281 435 281 q 315 281 357 281 q 231 281 272 281 q 160 281 190 281 q 107 281 132 281 q 62 284 82 281 q 29 297 42 288 q 14 325 17 306 q 14 353 11 343 q 24 368 17 363 q 42 376 32 374 q 65 383 53 379 z "},"”":{"ha":594,"x_min":10,"x_max":582,"o":"m 113 949 q 174 956 150 963 q 212 931 199 950 q 228 884 225 913 q 228 825 232 856 q 215 765 225 794 q 193 714 206 736 q 153 669 179 690 q 98 633 126 647 q 44 618 69 619 q 10 633 19 617 q 38 782 24 715 q 49 839 43 811 q 63 890 56 867 q 76 928 69 913 q 90 949 83 944 l 113 949 m 406 940 q 471 960 439 960 q 528 949 503 961 q 567 913 553 936 q 582 860 582 889 q 563 790 581 829 q 519 717 544 751 q 467 656 494 682 q 421 625 440 631 q 353 617 376 614 q 323 635 331 621 q 319 674 315 650 q 333 724 324 697 q 353 778 342 750 q 369 831 364 806 q 374 869 374 853 q 377 899 375 886 q 385 922 379 913 q 406 940 390 932 z "},"“":{"ha":594,"x_min":10,"x_max":582,"o":"m 113 949 q 174 956 150 963 q 212 931 199 950 q 228 884 225 913 q 228 825 232 856 q 215 765 225 794 q 193 714 206 736 q 153 669 179 690 q 98 633 126 647 q 44 618 69 619 q 10 633 19 617 q 38 782 24 715 q 49 839 43 811 q 63 890 56 867 q 76 928 69 913 q 90 949 83 944 l 113 949 m 406 940 q 471 960 439 960 q 528 949 503 961 q 567 913 553 936 q 582 860 582 889 q 563 790 581 829 q 519 717 544 751 q 467 656 494 682 q 421 625 440 631 q 353 617 376 614 q 323 635 331 621 q 319 674 315 650 q 333 724 324 697 q 353 778 342 750 q 369 831 364 806 q 374 869 374 853 q 377 899 375 886 q 385 922 379 913 q 406 940 390 932 z "},"‘":{"ha":236,"x_min":13,"x_max":224,"o":"m 17 611 q 15 634 13 625 q 23 651 17 643 q 36 669 29 660 q 47 692 43 678 q 57 749 54 717 q 63 814 60 782 q 69 872 65 846 q 83 911 74 899 q 102 924 89 917 q 132 935 115 931 q 165 939 149 939 q 193 933 182 939 q 209 914 203 929 q 219 880 215 899 q 223 842 222 861 q 222 808 224 822 q 200 728 218 771 q 154 654 182 686 q 91 608 126 622 q 17 611 56 593 z "},"’":{"ha":236,"x_min":13,"x_max":224,"o":"m 17 611 q 15 634 13 625 q 23 651 17 643 q 36 669 29 660 q 47 692 43 678 q 57 749 54 717 q 63 814 60 782 q 69 872 65 846 q 83 911 74 899 q 102 924 89 917 q 132 935 115 931 q 165 939 149 939 q 193 933 182 939 q 209 914 203 929 q 219 880 215 899 q 223 842 222 861 q 222 808 224 822 q 200 728 218 771 q 154 654 182 686 q 91 608 126 622 q 17 611 56 593 z "},"%":{"ha":696,"x_min":8,"x_max":685,"o":"m 244 921 q 330 927 285 931 q 415 911 375 924 q 483 880 454 899 q 522 840 513 861 q 530 738 547 788 q 474 649 513 689 q 387 584 436 610 q 296 554 338 558 q 205 560 250 550 q 126 595 160 569 q 76 663 92 621 q 75 767 60 706 q 98 817 81 792 q 139 863 115 842 q 190 899 163 883 q 244 921 217 914 m 244 664 q 299 654 275 646 q 339 683 324 663 q 361 733 354 704 q 363 785 368 761 q 339 824 357 810 q 288 832 321 839 q 248 806 267 828 q 219 758 229 785 q 215 704 210 731 q 244 664 219 678 m 368 340 q 476 344 426 351 q 563 315 526 338 q 617 256 599 293 q 633 172 636 219 q 606 105 631 139 q 547 42 582 71 q 473 -7 513 14 q 399 -33 433 -28 q 333 -35 368 -39 q 267 -22 299 -32 q 212 6 236 -11 q 178 47 188 24 q 165 156 153 106 q 209 244 176 206 q 285 308 242 283 q 368 340 329 333 m 354 56 q 406 61 382 47 q 444 99 429 75 q 465 151 460 122 q 465 204 471 181 q 439 241 458 228 q 383 246 419 254 q 332 211 351 239 q 308 151 313 183 q 314 90 303 118 q 354 56 325 63 m 64 306 q 358 421 213 364 q 654 522 504 478 q 677 540 669 526 q 681 569 685 554 q 662 592 675 585 q 633 594 649 599 q 331 492 479 549 q 36 376 183 435 q 15 356 21 369 q 14 328 8 343 q 35 306 21 313 q 64 306 49 300 z "},"­":{"ha":629,"x_min":11,"x_max":618,"o":"m 65 383 q 96 388 75 388 q 141 388 117 389 q 190 385 165 386 q 233 383 214 383 q 340 389 276 383 q 463 394 403 394 q 567 383 524 394 q 615 339 611 372 q 604 299 618 311 q 567 282 590 286 q 516 279 544 278 q 461 281 488 281 q 396 281 435 281 q 315 281 357 281 q 231 281 272 281 q 160 281 190 281 q 107 281 132 281 q 62 284 82 281 q 29 297 42 288 q 14 325 17 306 q 14 353 11 343 q 24 368 17 363 q 42 376 32 374 q 65 383 53 379 z "},"!":{"ha":367,"x_min":25,"x_max":339,"o":"m 226 932 q 246 936 232 933 q 276 940 260 939 q 306 938 292 940 q 329 925 321 935 q 338 895 339 913 q 330 860 336 878 q 317 826 324 842 q 308 800 310 810 q 308 767 306 789 q 308 726 311 746 q 293 672 306 701 q 265 610 281 642 q 233 544 249 578 q 206 478 217 511 q 191 417 196 449 q 181 357 186 385 q 167 310 176 329 q 139 286 158 290 q 97 302 111 282 q 80 358 83 322 q 81 441 76 394 q 92 535 85 488 q 106 625 99 582 q 117 697 113 668 q 116 737 118 711 q 112 790 114 763 q 110 842 110 817 q 117 881 110 867 q 135 897 121 889 q 167 913 150 906 q 201 924 185 919 q 226 932 218 929 m 94 169 q 128 163 106 172 q 172 138 150 154 q 210 100 193 121 q 226 60 226 79 q 206 11 226 36 q 157 -33 185 -14 q 101 -62 129 -53 q 58 -65 72 -72 q 31 -19 36 -54 q 31 56 25 17 q 54 129 38 96 q 94 169 71 163 z "},"*":{"ha":819,"x_min":49,"x_max":768,"o":"m 463 1146 q 499 1139 489 1147 q 510 1116 510 1131 q 506 1083 511 1101 q 498 1044 501 1064 q 494 1004 494 1024 q 507 971 494 985 q 540 953 519 954 q 582 956 561 951 q 619 969 603 961 q 639 978 635 976 q 656 990 643 979 q 685 1008 668 1000 q 719 1019 701 1017 q 749 1007 736 1021 q 763 963 768 982 q 738 926 757 943 q 690 894 718 910 q 634 865 661 879 q 587 835 607 850 q 565 801 567 819 q 577 775 564 790 q 608 742 590 760 q 645 706 626 725 q 676 669 664 688 q 688 631 688 650 q 668 596 688 613 q 616 583 640 574 q 568 610 592 592 q 520 646 544 629 q 469 656 496 663 q 446 644 451 650 q 440 627 440 638 q 439 602 439 617 q 433 567 439 588 q 416 526 429 554 q 385 473 403 497 q 345 438 367 449 q 301 450 324 428 q 290 481 290 461 q 292 523 289 500 q 301 570 296 546 q 304 615 306 594 q 292 651 303 636 q 257 669 282 665 q 232 661 251 671 q 188 640 213 651 q 135 617 163 628 q 88 608 108 607 q 58 623 68 608 q 60 676 49 638 q 80 704 64 693 q 117 724 96 715 q 164 740 139 732 q 210 758 189 749 q 247 778 232 767 q 265 808 263 790 q 251 863 271 846 q 206 893 232 881 q 159 921 181 906 q 140 971 138 936 q 156 1018 143 1007 q 187 1024 168 1029 q 228 1004 206 1019 q 273 974 250 989 q 317 951 296 960 q 353 949 338 942 q 376 972 369 956 q 388 1010 383 989 q 394 1056 392 1032 q 403 1099 397 1079 q 424 1131 410 1118 q 463 1146 438 1144 z "},"+":{"ha":617,"x_min":14,"x_max":600,"o":"m 293 582 q 331 588 314 592 q 361 572 349 585 q 381 538 374 558 q 389 493 389 517 q 385 471 389 483 q 376 447 381 458 q 369 426 372 436 q 367 413 365 417 q 392 382 374 390 q 433 373 410 374 q 483 375 457 372 q 533 378 510 378 q 574 372 557 378 q 594 347 590 367 q 578 310 600 318 q 524 301 557 301 q 454 303 490 301 q 396 296 418 304 q 381 283 392 293 q 358 258 369 272 q 337 228 347 243 q 322 200 326 213 q 314 156 315 179 q 308 115 313 133 q 292 88 304 97 q 249 83 279 78 q 208 117 214 89 q 206 193 201 146 q 217 235 208 217 q 219 267 225 254 q 198 288 214 281 q 166 298 182 294 q 138 302 150 301 q 125 303 125 303 q 102 304 118 304 q 69 306 86 304 q 39 311 53 307 q 22 325 25 315 q 31 357 14 349 q 76 367 49 365 q 137 369 104 369 q 190 376 169 369 q 228 401 217 385 q 244 435 240 417 q 249 476 249 454 q 251 517 249 497 q 263 554 254 538 q 293 582 271 571 z "},"Ñ":{"ha":999,"x_min":17,"x_max":982,"o":"m 464 1163 q 535 1169 499 1175 q 603 1151 571 1164 q 664 1126 636 1139 q 713 1111 692 1113 q 733 1116 718 1111 q 764 1124 747 1121 q 797 1128 781 1128 q 822 1119 814 1128 q 830 1101 828 1113 q 831 1077 832 1090 q 825 1051 829 1064 q 815 1031 821 1039 q 749 990 790 993 q 660 998 707 986 q 568 1026 613 1010 q 493 1046 524 1043 q 463 1044 476 1047 q 437 1038 449 1040 q 415 1035 425 1035 q 397 1046 406 1036 q 389 1085 382 1065 q 411 1122 396 1106 q 443 1150 426 1139 q 464 1163 460 1161 m 207 928 q 258 917 232 935 q 307 871 283 900 q 352 809 331 842 q 390 753 374 776 q 438 673 415 715 q 483 586 460 631 q 531 498 506 542 q 589 415 557 454 q 618 381 594 407 q 669 328 642 356 q 722 279 697 300 q 757 261 747 258 q 779 293 768 263 q 799 361 790 324 q 815 434 808 399 q 822 481 821 469 q 820 508 825 493 q 815 540 815 522 q 823 602 817 569 q 837 666 829 635 q 851 726 844 697 q 860 775 857 754 q 861 818 861 797 q 863 856 861 839 q 867 887 864 874 q 882 907 871 900 q 909 917 894 915 q 938 915 924 918 q 962 905 951 911 q 976 892 972 899 q 978 849 982 882 q 967 779 974 817 q 954 708 961 742 q 947 664 947 675 q 951 617 946 638 q 956 583 957 596 q 942 487 951 549 q 920 358 932 425 q 898 231 908 292 q 882 136 888 169 q 873 75 878 107 q 858 16 868 43 q 833 -29 849 -11 q 793 -47 818 -47 q 758 -30 776 -47 q 724 13 740 -12 q 691 64 707 38 q 661 107 675 90 q 597 185 628 150 q 537 255 567 219 q 478 330 507 290 q 419 422 449 369 q 395 465 411 438 q 361 519 379 493 q 327 565 343 546 q 303 583 311 583 q 260 549 274 582 q 242 470 247 517 q 236 371 238 424 q 229 276 235 318 q 219 231 226 253 q 203 187 211 208 q 187 147 194 165 q 178 114 179 128 q 176 75 175 96 q 176 34 176 54 q 176 -2 176 14 q 171 -25 175 -18 q 130 -50 156 -46 q 79 -44 104 -54 q 35 -12 54 -35 q 17 42 17 10 q 28 110 17 72 q 46 203 39 149 q 78 349 54 269 q 126 508 101 429 q 169 655 150 586 q 185 767 188 724 q 174 818 183 793 q 161 864 165 843 q 165 901 157 885 q 207 928 174 918 z "},"ñ":{"ha":776,"x_min":39,"x_max":740,"o":"m 303 914 q 319 916 311 915 q 335 917 328 917 q 394 907 368 917 q 444 886 421 897 q 492 865 468 875 q 546 856 515 856 q 561 858 561 856 q 560 863 561 861 q 560 867 560 864 q 570 874 560 869 q 604 879 581 879 q 636 856 636 879 q 624 820 636 840 q 597 781 613 800 q 564 747 581 761 q 538 731 547 733 q 504 726 521 726 q 445 738 474 726 q 390 761 417 749 q 337 785 363 774 q 286 796 311 796 q 249 786 275 796 q 199 776 222 776 q 165 808 165 776 q 182 846 165 828 q 222 878 199 864 q 267 901 244 892 q 303 914 290 911 m 567 158 q 618 174 601 157 q 646 210 635 190 q 669 244 657 229 q 706 254 681 258 q 734 235 728 250 q 736 201 740 221 q 721 158 732 181 q 697 114 710 135 q 672 77 683 93 q 654 56 660 61 q 598 15 632 32 q 528 -5 564 -1 q 463 5 493 -8 q 419 56 433 18 q 415 151 410 83 q 435 297 421 218 q 447 344 436 311 q 467 414 458 378 q 475 482 475 450 q 457 525 475 514 q 424 524 443 533 q 385 494 406 514 q 345 447 365 474 q 308 394 325 419 q 277 347 290 368 q 258 319 264 326 q 242 301 251 311 q 224 280 233 290 q 208 260 215 269 q 200 246 201 251 q 201 210 193 226 q 207 174 210 193 q 194 145 206 160 q 178 107 183 131 q 168 56 172 83 q 153 8 164 28 q 124 -17 143 -12 q 68 4 104 -21 q 54 21 60 10 q 45 45 49 32 q 40 72 42 58 q 39 93 39 85 q 48 156 39 118 q 68 237 57 193 q 88 328 79 281 q 97 422 97 375 q 90 467 97 443 q 75 517 82 492 q 65 568 68 543 q 68 613 61 593 q 91 643 75 633 q 124 656 107 653 q 156 658 142 660 q 171 657 169 657 q 199 623 192 649 q 211 569 207 597 q 221 517 215 540 q 243 489 226 493 q 284 508 260 485 q 334 562 308 531 q 386 622 360 593 q 435 657 413 650 q 493 663 463 667 q 550 645 524 658 q 597 612 576 632 q 625 569 617 592 q 633 478 639 526 q 614 378 628 431 q 585 272 600 326 q 567 158 571 217 z "},"⅛":{"ha":658,"x_min":13,"x_max":647,"o":"m 308 1053 q 352 1044 338 1056 q 371 1008 367 1032 q 372 948 375 983 q 360 869 368 913 q 345 832 357 850 q 331 796 333 814 q 334 765 328 779 q 338 738 340 751 q 324 705 335 718 q 308 672 313 692 q 305 610 301 640 q 301 569 308 581 q 267 543 289 550 q 226 543 246 536 q 191 571 206 550 q 176 628 176 592 q 188 685 176 644 q 209 770 199 725 q 225 854 219 815 q 221 907 231 893 q 195 917 213 917 q 160 915 178 917 q 128 918 143 914 q 110 943 114 922 q 134 972 108 954 q 194 1008 160 990 q 261 1039 228 1026 q 308 1053 294 1051 m 579 592 q 614 592 597 592 q 639 569 631 592 q 634 526 647 544 q 597 494 621 508 q 546 469 574 481 q 499 444 518 457 q 460 416 475 429 q 432 392 446 403 q 401 373 418 382 q 353 357 383 364 q 318 339 333 351 q 286 319 303 326 q 231 294 271 313 q 149 258 192 276 q 71 226 106 239 q 29 217 36 213 q 17 241 22 221 q 15 283 13 261 q 39 328 18 311 q 88 358 60 346 q 147 380 115 371 q 206 400 179 389 q 279 438 239 414 q 361 487 319 461 q 442 537 403 513 q 514 576 482 561 q 551 588 532 585 q 579 592 569 590 m 396 326 q 459 334 429 339 q 512 309 489 329 q 547 256 535 289 q 557 181 560 222 q 552 158 557 169 q 542 136 547 147 q 532 114 536 125 q 528 93 528 103 q 542 55 529 74 q 571 17 556 36 q 598 -22 586 -3 q 608 -61 610 -42 q 584 -131 607 -101 q 528 -176 561 -160 q 455 -196 494 -193 q 381 -187 415 -199 q 322 -147 346 -175 q 293 -76 297 -119 q 300 -37 292 -58 q 320 4 308 -17 q 342 44 332 25 q 353 78 351 63 q 349 110 354 94 q 338 142 344 126 q 327 175 332 158 q 324 210 322 192 q 331 244 325 226 q 347 279 338 263 q 369 308 357 296 q 396 326 382 321 m 425 -99 q 466 -94 451 -111 q 483 -56 481 -78 q 473 -18 485 -33 q 433 -18 461 -3 q 414 -37 419 -25 q 409 -62 408 -50 q 414 -85 410 -75 q 425 -99 418 -94 z "},"³":{"ha":433,"x_min":38,"x_max":394,"o":"m 153 714 q 172 751 151 729 q 213 797 193 774 q 238 841 232 819 q 211 875 243 863 q 174 876 188 885 q 151 854 161 867 q 131 832 142 842 q 101 831 119 822 q 69 874 60 849 q 114 921 78 900 q 199 953 150 942 q 285 956 247 965 q 326 934 301 951 q 358 889 351 917 q 360 854 364 868 q 351 828 357 840 q 340 803 346 817 q 336 772 335 790 q 344 738 338 750 q 360 718 351 726 q 376 701 368 710 q 388 676 385 692 q 387 608 394 639 q 364 553 379 578 q 331 513 349 529 q 300 486 313 496 q 267 467 289 478 q 219 449 246 457 q 161 440 192 442 q 101 450 131 439 q 84 462 96 451 q 61 486 72 472 q 44 514 50 500 q 43 538 38 528 q 73 558 54 558 q 111 549 92 557 q 150 531 131 540 q 182 522 169 521 q 226 540 207 524 q 257 578 246 556 q 269 626 268 601 q 260 672 271 651 q 222 704 249 692 q 153 714 196 717 z "},"²":{"ha":385,"x_min":38,"x_max":346,"o":"m 197 801 q 175 758 189 781 q 144 722 161 736 q 106 703 126 707 q 65 714 86 700 q 40 753 43 729 q 50 803 38 776 q 87 855 63 829 q 142 899 111 881 q 206 924 172 917 q 271 919 239 931 q 293 903 281 915 q 317 874 306 890 q 335 842 328 858 q 344 817 343 826 q 338 778 346 797 q 317 739 329 758 q 290 699 304 719 q 263 656 275 678 q 259 631 256 642 q 256 611 263 621 q 240 593 250 603 q 222 572 231 583 q 207 549 213 561 q 204 522 201 536 q 222 501 208 507 q 252 490 236 494 q 281 478 268 486 q 293 450 293 469 q 277 425 293 436 q 236 408 261 414 q 181 399 211 401 q 123 401 150 397 q 76 415 96 406 q 50 442 56 425 q 61 483 46 456 q 99 542 76 511 q 144 604 122 574 q 175 656 167 635 q 196 725 190 690 q 197 801 201 760 z "},"…":{"ha":1025,"x_min":33,"x_max":986,"o":"m 164 224 q 201 216 178 225 q 247 190 225 207 q 286 151 269 174 q 303 107 303 129 q 282 53 303 78 q 231 11 261 29 q 170 -15 201 -7 q 119 -18 139 -22 q 50 31 67 -6 q 42 108 33 67 q 84 183 51 149 q 164 224 117 217 m 506 224 q 543 216 519 225 q 589 190 567 207 q 628 151 611 174 q 644 107 644 129 q 624 53 644 78 q 573 11 603 29 q 512 -15 543 -7 q 461 -18 481 -22 q 392 31 408 -6 q 384 108 375 67 q 426 183 393 149 q 506 224 458 217 m 847 224 q 885 216 861 225 q 931 190 908 207 q 969 151 953 174 q 986 107 986 129 q 965 53 986 78 q 915 11 944 29 q 853 -15 885 -7 q 803 -18 822 -22 q 733 31 750 -6 q 726 108 717 67 q 767 183 735 149 q 847 224 800 217 z "}}}
